<svg xmlns="http://www.w3.org/2000/svg" aria-hidden="true" style="position:absolute;width:0;height:0;overflow:hidden">
  <defs>
    <symbol id="arrow-right" viewBox="0 0 82 32">
      <path d="M81.414 17.414a2 2 0 0 0 0-2.828L68.686 1.858a2 2 0 1 0-2.828 2.828L77.172 16 65.858 27.314a2 2 0 1 0 2.828 2.828l12.728-12.728zM0 18h80v-4H0v4z"/>
    </symbol>
    <symbol id="dots-mobile" viewBox="0 0 205 32">
      <path d="M156.54 29.616c0 .982-.745 1.778-1.664 1.778s-1.664-.796-1.664-1.778.745-1.778 1.664-1.778 1.664.796 1.664 1.778zM160.146 27.245c0 .982-.745 1.778-1.664 1.778s-1.664-.796-1.664-1.778.745-1.778 1.664-1.778 1.664.796 1.664 1.778zM164.305 24.578c0 .982-.745 1.778-1.664 1.778s-1.664-.796-1.664-1.778.745-1.778 1.664-1.778 1.664.796 1.664 1.778zM168.189 22.206c0 .982-.745 1.778-1.664 1.778s-1.664-.796-1.664-1.778.745-1.778 1.664-1.778 1.664.796 1.664 1.778zM165.969 28.431c0 .982-.745 1.778-1.664 1.778s-1.664-.796-1.664-1.778.745-1.778 1.664-1.778 1.664.796 1.664 1.778zM169.575 26.06c0 .982-.745 1.778-1.664 1.778s-1.664-.796-1.664-1.778.745-1.778 1.664-1.778 1.664.796 1.664 1.778zM173.735 23.392c0 .982-.745 1.778-1.664 1.778s-1.664-.796-1.664-1.778.745-1.778 1.664-1.778 1.664.796 1.664 1.778zM177.619 21.021c0 .982-.745 1.778-1.664 1.778s-1.664-.796-1.664-1.778.745-1.778 1.664-1.778 1.664.796 1.664 1.778zM174.014 27.542c0 .982-.745 1.778-1.664 1.778s-1.664-.796-1.664-1.778.745-1.778 1.664-1.778 1.664.796 1.664 1.778zM177.619 25.171c0 .982-.745 1.778-1.664 1.778s-1.664-.796-1.664-1.778.745-1.778 1.664-1.778 1.664.796 1.664 1.778zM181.779 22.503c0 .982-.745 1.778-1.664 1.778s-1.664-.796-1.664-1.778.745-1.778 1.664-1.778 1.664.796 1.664 1.778zM185.662 20.132c0 .982-.745 1.778-1.664 1.778s-1.664-.796-1.664-1.778.745-1.778 1.664-1.778 1.664.796 1.664 1.778zM181.778 26.356c0 .982-.745 1.778-1.664 1.778s-1.664-.796-1.664-1.778.745-1.778 1.664-1.778 1.664.796 1.664 1.778zM185.383 23.985c0 .982-.745 1.778-1.664 1.778s-1.664-.796-1.664-1.778.745-1.778 1.664-1.778 1.664.796 1.664 1.778zM189.543 21.318c0 .982-.745 1.778-1.664 1.778s-1.664-.796-1.664-1.778.745-1.778 1.664-1.778 1.664.796 1.664 1.778zM193.427 18.947c0 .982-.745 1.778-1.664 1.778s-1.664-.796-1.664-1.778.745-1.778 1.664-1.778 1.664.796 1.664 1.778zM184.276 29.616c0 .982-.745 1.778-1.664 1.778s-1.664-.796-1.664-1.778.745-1.778 1.664-1.778 1.664.796 1.664 1.778zM187.882 27.245c0 .982-.745 1.778-1.664 1.778s-1.664-.796-1.664-1.778.745-1.778 1.664-1.778 1.664.796 1.664 1.778zM192.874 29.913c0 .982-.745 1.778-1.664 1.778s-1.664-.796-1.664-1.778.745-1.778 1.664-1.778 1.664.796 1.664 1.778zM192.042 24.578c0 .982-.745 1.778-1.664 1.778s-1.664-.796-1.664-1.778.745-1.778 1.664-1.778 1.664.796 1.664 1.778zM197.034 27.245c0 .982-.745 1.778-1.664 1.778s-1.664-.796-1.664-1.778.745-1.778 1.664-1.778 1.664.796 1.664 1.778zM200.918 29.913c0 .982-.745 1.778-1.664 1.778s-1.664-.796-1.664-1.778.745-1.778 1.664-1.778 1.664.796 1.664 1.778zM195.925 22.206c0 .982-.745 1.778-1.664 1.778s-1.664-.796-1.664-1.778.745-1.778 1.664-1.778 1.664.796 1.664 1.778zM200.918 24.874c0 .982-.745 1.778-1.664 1.778s-1.664-.796-1.664-1.778.745-1.778 1.664-1.778 1.664.796 1.664 1.778zM204.801 27.542c0 .982-.745 1.778-1.664 1.778s-1.664-.796-1.664-1.778.745-1.778 1.664-1.778 1.664.796 1.664 1.778zM139.622 10.055c0 .982-.745 1.778-1.664 1.778s-1.664-.796-1.664-1.778.745-1.778 1.664-1.778 1.664.796 1.664 1.778zM143.227 7.684c0 .982-.745 1.778-1.664 1.778s-1.664-.796-1.664-1.778.745-1.778 1.664-1.778 1.664.796 1.664 1.778zM147.388 5.016c0 .982-.745 1.778-1.664 1.778s-1.664-.796-1.664-1.778.745-1.778 1.664-1.778 1.664.796 1.664 1.778zM151.27 2.645c0 .982-.745 1.778-1.664 1.778s-1.664-.796-1.664-1.778.745-1.778 1.664-1.778 1.664.796 1.664 1.778zM132.687 9.758c0 .982-.745 1.778-1.664 1.778s-1.664-.796-1.664-1.778.745-1.778 1.664-1.778 1.664.796 1.664 1.778zM136.293 7.387c0 .982-.745 1.778-1.664 1.778s-1.664-.796-1.664-1.778.745-1.778 1.664-1.778 1.664.796 1.664 1.778zM140.453 4.72c0 .982-.745 1.778-1.664 1.778s-1.664-.796-1.664-1.778.745-1.778 1.664-1.778 1.664.796 1.664 1.778zM144.335 2.349c0 .982-.745 1.778-1.664 1.778s-1.664-.796-1.664-1.778.745-1.778 1.664-1.778 1.664.796 1.664 1.778zM148.219 29.616c0 .982-.745 1.778-1.664 1.778s-1.664-.796-1.664-1.778.745-1.778 1.664-1.778 1.664.796 1.664 1.778zM151.824 27.245c0 .982-.745 1.778-1.664 1.778s-1.664-.796-1.664-1.778.745-1.778 1.664-1.778 1.664.796 1.664 1.778zM155.984 24.578c0 .982-.745 1.778-1.664 1.778s-1.664-.796-1.664-1.778.745-1.778 1.664-1.778 1.664.796 1.664 1.778zM159.868 22.206c0 .982-.745 1.778-1.664 1.778s-1.664-.796-1.664-1.778.745-1.778 1.664-1.778 1.664.796 1.664 1.778zM143.781 27.838c0 .982-.745 1.778-1.664 1.778s-1.664-.796-1.664-1.778.745-1.778 1.664-1.778 1.664.796 1.664 1.778zM147.387 25.467c0 .982-.745 1.778-1.664 1.778s-1.664-.796-1.664-1.778.745-1.778 1.664-1.778 1.664.796 1.664 1.778zM151.547 22.8c0 .982-.745 1.778-1.664 1.778s-1.664-.796-1.664-1.778.745-1.778 1.664-1.778 1.664.796 1.664 1.778zM155.43 20.429c0 .982-.745 1.778-1.664 1.778s-1.664-.796-1.664-1.778.745-1.778 1.664-1.778 1.664.796 1.664 1.778zM145.446 21.614c0 .982-.745 1.778-1.664 1.778s-1.664-.796-1.664-1.778.745-1.778 1.664-1.778 1.664.796 1.664 1.778zM149.051 19.243c0 .982-.745 1.778-1.664 1.778s-1.664-.796-1.664-1.778.745-1.778 1.664-1.778 1.664.796 1.664 1.778zM153.212 16.575c0 .982-.745 1.778-1.664 1.778s-1.664-.796-1.664-1.778.745-1.778 1.664-1.778 1.664.796 1.664 1.778zM157.095 14.204c0 .982-.745 1.778-1.664 1.778s-1.664-.796-1.664-1.778.745-1.778 1.664-1.778 1.664.796 1.664 1.778zM145.446 11.24c0 .982-.745 1.778-1.664 1.778s-1.664-.796-1.664-1.778.745-1.778 1.664-1.778 1.664.796 1.664 1.778zM149.051 8.869c0 .982-.745 1.778-1.664 1.778s-1.664-.796-1.664-1.778.745-1.778 1.664-1.778 1.664.796 1.664 1.778zM153.212 6.202c0 .982-.745 1.778-1.664 1.778s-1.664-.796-1.664-1.778.745-1.778 1.664-1.778 1.664.796 1.664 1.778zM157.095 3.831c0 .982-.745 1.778-1.664 1.778s-1.664-.796-1.664-1.778.745-1.778 1.664-1.778 1.664.796 1.664 1.778zM144.613 16.872c0 .982-.745 1.778-1.664 1.778s-1.664-.796-1.664-1.778.745-1.778 1.664-1.778 1.664.796 1.664 1.778zM148.22 14.501c0 .982-.745 1.778-1.664 1.778s-1.664-.796-1.664-1.778.745-1.778 1.664-1.778 1.664.796 1.664 1.778zM152.379 11.833c0 .982-.745 1.778-1.664 1.778s-1.664-.796-1.664-1.778.745-1.778 1.664-1.778 1.664.796 1.664 1.778zM156.262 9.462c0 .982-.745 1.778-1.664 1.778s-1.664-.796-1.664-1.778.745-1.778 1.664-1.778 1.664.796 1.664 1.778zM127.14 8.276c0 .982-.745 1.778-1.664 1.778s-1.664-.796-1.664-1.778.745-1.778 1.664-1.778 1.664.796 1.664 1.778zM130.746 5.905c0 .982-.745 1.778-1.664 1.778s-1.664-.796-1.664-1.778.745-1.778 1.664-1.778 1.664.796 1.664 1.778zM134.906 3.238c0 .982-.745 1.778-1.664 1.778s-1.664-.796-1.664-1.778.745-1.778 1.664-1.778 1.664.796 1.664 1.778z"/>
      <path d="M132.964 10.055c.919 0 1.665-.796 1.665-1.778s-.746-1.778-1.665-1.778-1.664.796-1.664 1.778.745 1.778 1.664 1.778zM56.441 21.475c.141.985-.491 1.906-1.413 2.057s-1.784-.525-1.925-1.51c-.141-.985.491-1.906 1.413-2.057s1.784.525 1.925 1.51zM59.717 18.504c.141.985-.491 1.906-1.413 2.057s-1.784-.525-1.925-1.51c-.141-.985.491-1.906 1.413-2.057s1.784.525 1.925 1.51zM63.506 15.144c.141.985-.491 1.906-1.413 2.057s-1.784-.525-1.925-1.51c-.141-.985.491-1.906 1.413-2.057s1.784.525 1.925 1.51zM67.06 12.128c.141.985-.491 1.906-1.413 2.057s-1.784-.525-1.925-1.51c-.141-.985.491-1.906 1.413-2.057s1.784.525 1.925 1.51zM3.481 21.473c0 .997-.779 1.805-1.741 1.805s-1.741-.808-1.741-1.805c0-.997.779-1.805 1.741-1.805s1.741.808 1.741 1.805zM7.252 19.067c0 .997-.779 1.805-1.741 1.805s-1.741-.808-1.741-1.805c0-.997.779-1.805 1.741-1.805s1.741.808 1.741 1.805zM11.605 16.36c0 .997-.779 1.805-1.741 1.805s-1.741-.808-1.741-1.805c0-.997.779-1.805 1.741-1.805s1.741.808 1.741 1.805zM15.666 13.953c0 .997-.779 1.805-1.741 1.805s-1.741-.808-1.741-1.805c0-.997.779-1.805 1.741-1.805s1.741.808 1.741 1.805zM5.223 25.984c0 .997-.779 1.805-1.741 1.805s-1.741-.808-1.741-1.805c0-.997.779-1.805 1.741-1.805s1.741.808 1.741 1.805zM8.994 23.578c0 .997-.779 1.805-1.741 1.805s-1.741-.808-1.741-1.805c0-.997.779-1.805 1.741-1.805s1.741.808 1.741 1.805zM13.346 20.871c0 .997-.779 1.805-1.741 1.805s-1.741-.808-1.741-1.805c0-.997.779-1.805 1.741-1.805s1.741.808 1.741 1.805zM17.407 18.465c0 .997-.779 1.805-1.741 1.805s-1.741-.808-1.741-1.805c0-.997.779-1.805 1.741-1.805s1.741.808 1.741 1.805zM9.573 28.39c0 .997-.779 1.805-1.741 1.805s-1.741-.808-1.741-1.805c0-.997.779-1.805 1.741-1.805s1.741.808 1.741 1.805zM13.345 25.984c0 .997-.779 1.805-1.741 1.805s-1.741-.808-1.741-1.805c0-.997.779-1.805 1.741-1.805s1.741.808 1.741 1.805zM17.696 23.277c0 .997-.779 1.805-1.741 1.805s-1.741-.808-1.741-1.805c0-.997.779-1.805 1.741-1.805s1.741.808 1.741 1.805zM21.758 20.871c0 .997-.779 1.805-1.741 1.805s-1.741-.808-1.741-1.805c0-.997.779-1.805 1.741-1.805s1.741.808 1.741 1.805zM14.504 29.895c0 .997-.779 1.805-1.741 1.805s-1.741-.808-1.741-1.805c0-.997.779-1.805 1.741-1.805s1.741.808 1.741 1.805zM18.276 27.488c0 .997-.779 1.805-1.741 1.805s-1.741-.808-1.741-1.805c0-.997.779-1.805 1.741-1.805s1.741.808 1.741 1.805zM22.629 24.781c0 .997-.779 1.805-1.741 1.805s-1.741-.808-1.741-1.805c0-.997.779-1.805 1.741-1.805s1.741.808 1.741 1.805zM26.689 22.375c0 .997-.779 1.805-1.741 1.805s-1.741-.808-1.741-1.805c0-.997.779-1.805 1.741-1.805s1.741.808 1.741 1.805z"/>
      <path d="M20.888 30.196c0 .997-.779 1.805-1.741 1.805s-1.741-.808-1.741-1.805c0-.997.779-1.805 1.741-1.805s1.741.808 1.741 1.805zM24.659 27.789c0 .997-.779 1.805-1.741 1.805s-1.741-.808-1.741-1.805c0-.997.779-1.805 1.741-1.805s1.741.808 1.741 1.805zM29.011 25.082c0 .997-.779 1.805-1.741 1.805s-1.741-.808-1.741-1.805c0-.997.779-1.805 1.741-1.805s1.741.808 1.741 1.805zM33.072 22.676c0 .997-.779 1.805-1.741 1.805s-1.741-.808-1.741-1.805c0-.997.779-1.805 1.741-1.805s1.741.808 1.741 1.805zM28.431 30.195c0 .997-.779 1.805-1.741 1.805s-1.741-.808-1.741-1.805c0-.997.779-1.805 1.741-1.805s1.741.808 1.741 1.805zM32.202 27.789c0 .997-.779 1.805-1.741 1.805s-1.741-.808-1.741-1.805c0-.997.779-1.805 1.741-1.805s1.741.808 1.741 1.805zM36.554 25.082c0 .997-.779 1.805-1.741 1.805s-1.741-.808-1.741-1.805c0-.997.779-1.805 1.741-1.805s1.741.808 1.741 1.805zM40.616 22.676c0 .997-.779 1.805-1.741 1.805s-1.741-.808-1.741-1.805c0-.997.779-1.805 1.741-1.805s1.741.808 1.741 1.805z"/>
      <path d="M34.812 29.895c0 .997-.779 1.805-1.741 1.805s-1.741-.808-1.741-1.805c0-.997.779-1.805 1.741-1.805s1.741.808 1.741 1.805zM38.583 27.488c0 .997-.779 1.805-1.741 1.805s-1.741-.808-1.741-1.805c0-.997.779-1.805 1.741-1.805s1.741.808 1.741 1.805zM42.936 24.781c0 .997-.779 1.805-1.741 1.805s-1.741-.808-1.741-1.805c0-.997.779-1.805 1.741-1.805s1.741.808 1.741 1.805zM46.996 22.375c0 .997-.779 1.805-1.741 1.805s-1.741-.808-1.741-1.805c0-.997.779-1.805 1.741-1.805s1.741.808 1.741 1.805zM42.064 29.594c0 .997-.779 1.805-1.741 1.805s-1.741-.808-1.741-1.805c0-.997.779-1.805 1.741-1.805s1.741.808 1.741 1.805zM45.836 27.187c0 .997-.779 1.805-1.741 1.805s-1.741-.808-1.741-1.805c0-.997.779-1.805 1.741-1.805s1.741.808 1.741 1.805zM50.188 24.481c0 .997-.779 1.805-1.741 1.805s-1.741-.808-1.741-1.805c0-.997.779-1.805 1.741-1.805s1.741.808 1.741 1.805zM54.249 22.074c0 .997-.779 1.805-1.741 1.805s-1.741-.808-1.741-1.805c0-.997.779-1.805 1.741-1.805s1.741.808 1.741 1.805z"/>
      <path d="M48.737 21.773c0 .997-.779 1.805-1.741 1.805s-1.741-.808-1.741-1.805c0-.997.779-1.805 1.741-1.805s1.741.808 1.741 1.805zM52.508 19.367c0 .997-.779 1.805-1.741 1.805s-1.741-.808-1.741-1.805c0-.997.779-1.805 1.741-1.805s1.741.808 1.741 1.805zM56.86 16.66c0 .997-.779 1.805-1.741 1.805s-1.741-.808-1.741-1.805c0-.997.779-1.805 1.741-1.805s1.741.808 1.741 1.805zM60.921 14.254c0 .997-.779 1.805-1.741 1.805s-1.741-.808-1.741-1.805c0-.997.779-1.805 1.741-1.805s1.741.808 1.741 1.805z"/>
    </symbol>
    <symbol id="dots-tablet" viewBox="0 0 356 32">
      <path d="M306.022 29.57c0 1.021-0.832 1.849-1.858 1.849s-1.858-0.828-1.858-1.849c0-1.021 0.832-1.849 1.858-1.849s1.858 0.828 1.858 1.849z"></path>
      <path d="M309.737 27.259c0 1.021-0.832 1.849-1.858 1.849s-1.858-0.828-1.858-1.849c0-1.021 0.832-1.849 1.858-1.849s1.858 0.828 1.858 1.849z"></path>
      <path d="M314.38 24.484c0 1.021-0.832 1.849-1.858 1.849s-1.858-0.828-1.858-1.849c0-1.021 0.832-1.849 1.858-1.849s1.858 0.828 1.858 1.849z"></path>
      <path d="M318.095 22.173c0 1.021-0.832 1.849-1.858 1.849s-1.858-0.828-1.858-1.849c0-1.021 0.832-1.849 1.858-1.849s1.858 0.828 1.858 1.849z"></path>
      <path d="M315.773 28.646c0 1.021-0.832 1.849-1.858 1.849s-1.858-0.828-1.858-1.849c0-1.021 0.832-1.849 1.858-1.849s1.858 0.828 1.858 1.849z"></path>
      <path d="M319.489 26.334c0 1.021-0.832 1.849-1.858 1.849s-1.858-0.828-1.858-1.849c0-1.021 0.832-1.849 1.858-1.849s1.858 0.828 1.858 1.849z"></path>
      <path d="M324.132 23.56c0 1.021-0.832 1.849-1.858 1.849s-1.858-0.828-1.858-1.849c0-1.021 0.832-1.849 1.858-1.849s1.858 0.828 1.858 1.849z"></path>
      <path d="M327.847 21.248c0 1.021-0.832 1.849-1.858 1.849s-1.858-0.828-1.858-1.849c0-1.021 0.832-1.849 1.858-1.849s1.858 0.828 1.858 1.849z"></path>
      <path d="M324.132 27.721c0 1.021-0.832 1.849-1.858 1.849s-1.858-0.828-1.858-1.849c0-1.021 0.832-1.849 1.858-1.849s1.858 0.828 1.858 1.849z"></path>
      <path d="M327.847 25.409c0 1.021-0.832 1.849-1.858 1.849s-1.858-0.828-1.858-1.849c0-1.021 0.832-1.849 1.858-1.849s1.858 0.828 1.858 1.849z"></path>
      <path d="M332.491 22.635c0 1.021-0.832 1.849-1.858 1.849s-1.858-0.828-1.858-1.849c0-1.021 0.832-1.849 1.858-1.849s1.858 0.828 1.858 1.849z"></path>
      <path d="M336.206 20.323c0 1.021-0.832 1.849-1.858 1.849s-1.858-0.828-1.858-1.849c0-1.021 0.832-1.849 1.858-1.849s1.858 0.828 1.858 1.849z"></path>
      <path d="M332.491 26.334c0 1.021-0.832 1.849-1.858 1.849s-1.858-0.828-1.858-1.849c0-1.021 0.832-1.849 1.858-1.849s1.858 0.828 1.858 1.849z"></path>
      <path d="M336.206 24.022c0 1.021-0.832 1.849-1.858 1.849s-1.858-0.828-1.858-1.849c0-1.021 0.832-1.849 1.858-1.849s1.858 0.828 1.858 1.849z"></path>
      <path d="M340.85 21.248c0 1.021-0.832 1.849-1.858 1.849s-1.858-0.828-1.858-1.849c0-1.021 0.832-1.849 1.858-1.849s1.858 0.828 1.858 1.849z"></path>
      <path d="M344.565 18.936c0 1.021-0.832 1.849-1.858 1.849s-1.858-0.828-1.858-1.849c0-1.021 0.832-1.849 1.858-1.849s1.858 0.828 1.858 1.849z"></path>
      <path d="M334.813 29.57c0 1.021-0.832 1.849-1.858 1.849s-1.858-0.828-1.858-1.849c0-1.021 0.832-1.849 1.858-1.849s1.858 0.828 1.858 1.849z"></path>
      <path d="M338.528 27.259c0 1.021-0.832 1.849-1.858 1.849s-1.858-0.828-1.858-1.849c0-1.021 0.832-1.849 1.858-1.849s1.858 0.828 1.858 1.849z"></path>
      <path d="M343.636 30.033c0 1.021-0.832 1.849-1.858 1.849s-1.858-0.828-1.858-1.849c0-1.021 0.832-1.849 1.858-1.849s1.858 0.828 1.858 1.849z"></path>
      <path d="M343.171 24.484c0 1.021-0.832 1.849-1.858 1.849s-1.858-0.828-1.858-1.849c0-1.021 0.832-1.849 1.858-1.849s1.858 0.828 1.858 1.849z"></path>
      <path d="M348.279 27.259c0 1.021-0.832 1.849-1.858 1.849s-1.858-0.828-1.858-1.849c0-1.021 0.832-1.849 1.858-1.849s1.858 0.828 1.858 1.849z"></path>
      <path d="M352.459 30.033c0 1.021-0.832 1.849-1.858 1.849s-1.858-0.828-1.858-1.849c0-1.021 0.832-1.849 1.858-1.849s1.858 0.828 1.858 1.849z"></path>
      <path d="M346.887 22.173c0 1.021-0.832 1.849-1.858 1.849s-1.858-0.828-1.858-1.849c0-1.021 0.832-1.849 1.858-1.849s1.858 0.828 1.858 1.849z"></path>
      <path d="M352.459 24.947c0 1.021-0.832 1.849-1.858 1.849s-1.858-0.828-1.858-1.849c0-1.021 0.832-1.849 1.858-1.849s1.858 0.828 1.858 1.849z"></path>
      <path d="M356.174 27.721c0 1.021-0.832 1.849-1.858 1.849s-1.858-0.828-1.858-1.849c0-1.021 0.832-1.849 1.858-1.849s1.858 0.828 1.858 1.849z"></path>
      <path d="M288.376 10.151c0 1.021-0.832 1.849-1.858 1.849s-1.858-0.828-1.858-1.849c0-1.021 0.832-1.849 1.858-1.849s1.858 0.828 1.858 1.849z"></path>
      <path d="M292.091 7.839c0 1.021-0.832 1.849-1.858 1.849s-1.858-0.828-1.858-1.849c0-1.021 0.832-1.849 1.858-1.849s1.858 0.828 1.858 1.849z"></path>
      <path d="M296.734 5.065c0 1.021-0.832 1.849-1.858 1.849s-1.858-0.828-1.858-1.849c0-1.021 0.832-1.849 1.858-1.849s1.858 0.828 1.858 1.849z"></path>
      <path d="M300.449 2.753c0 1.021-0.832 1.849-1.858 1.849s-1.858-0.828-1.858-1.849c0-1.021 0.832-1.849 1.858-1.849s1.858 0.828 1.858 1.849z"></path>
      <path d="M280.946 9.689c0 1.021-0.832 1.849-1.858 1.849s-1.858-0.828-1.858-1.849c0-1.021 0.832-1.849 1.858-1.849s1.858 0.828 1.858 1.849z"></path>
      <path d="M284.661 7.377c0 1.021-0.832 1.849-1.858 1.849s-1.858-0.828-1.858-1.849c0-1.021 0.832-1.849 1.858-1.849s1.858 0.828 1.858 1.849z"></path>
      <path d="M289.304 4.603c0 1.021-0.832 1.849-1.858 1.849s-1.858-0.828-1.858-1.849c0-1.021 0.832-1.849 1.858-1.849s1.858 0.828 1.858 1.849z"></path>
      <path d="M293.019 2.291c0 1.021-0.832 1.849-1.858 1.849s-1.858-0.828-1.858-1.849c0-1.021 0.832-1.849 1.858-1.849s1.858 0.828 1.858 1.849z"></path>
      <path d="M297.198 29.57c0 1.021-0.832 1.849-1.858 1.849s-1.858-0.828-1.858-1.849c0-1.021 0.832-1.849 1.858-1.849s1.858 0.828 1.858 1.849z"></path>
      <path d="M300.914 27.259c0 1.021-0.832 1.849-1.858 1.849s-1.858-0.828-1.858-1.849c0-1.021 0.832-1.849 1.858-1.849s1.858 0.828 1.858 1.849z"></path>
      <path d="M305.557 24.484c0 1.021-0.832 1.849-1.858 1.849s-1.858-0.828-1.858-1.849c0-1.021 0.832-1.849 1.858-1.849s1.858 0.828 1.858 1.849z"></path>
      <path d="M309.272 22.173c0 1.021-0.832 1.849-1.858 1.849s-1.858-0.828-1.858-1.849c0-1.021 0.832-1.849 1.858-1.849s1.858 0.828 1.858 1.849z"></path>
      <path d="M292.555 28.183c0 1.021-0.832 1.849-1.858 1.849s-1.858-0.828-1.858-1.849c0-1.021 0.832-1.849 1.858-1.849s1.858 0.828 1.858 1.849z"></path>
      <path d="M296.27 25.872c0 1.021-0.832 1.849-1.858 1.849s-1.858-0.828-1.858-1.849c0-1.021 0.832-1.849 1.858-1.849s1.858 0.828 1.858 1.849z"></path>
      <path d="M300.914 23.097c0 1.021-0.832 1.849-1.858 1.849s-1.858-0.828-1.858-1.849c0-1.021 0.832-1.849 1.858-1.849s1.858 0.828 1.858 1.849z"></path>
      <path d="M304.628 20.785c0 1.021-0.832 1.849-1.858 1.849s-1.858-0.828-1.858-1.849c0-1.021 0.832-1.849 1.858-1.849s1.858 0.828 1.858 1.849z"></path>
      <path d="M294.413 21.71c0 1.021-0.832 1.849-1.858 1.849s-1.858-0.828-1.858-1.849c0-1.021 0.832-1.849 1.858-1.849s1.858 0.828 1.858 1.849z"></path>
      <path d="M298.127 19.398c0 1.021-0.832 1.849-1.858 1.849s-1.858-0.828-1.858-1.849c0-1.021 0.832-1.849 1.858-1.849s1.858 0.828 1.858 1.849z"></path>
      <path d="M302.771 16.624c0 1.021-0.832 1.849-1.858 1.849s-1.858-0.828-1.858-1.849c0-1.021 0.832-1.849 1.858-1.849s1.858 0.828 1.858 1.849z"></path>
      <path d="M306.486 14.312c0 1.021-0.832 1.849-1.858 1.849s-1.858-0.828-1.858-1.849c0-1.021 0.832-1.849 1.858-1.849s1.858 0.828 1.858 1.849z"></path>
      <path d="M294.413 11.076c0 1.021-0.832 1.849-1.858 1.849s-1.858-0.828-1.858-1.849c0-1.021 0.832-1.849 1.858-1.849s1.858 0.828 1.858 1.849z"></path>
      <path d="M298.127 8.764c0 1.021-0.832 1.849-1.858 1.849s-1.858-0.828-1.858-1.849c0-1.021 0.832-1.849 1.858-1.849s1.858 0.828 1.858 1.849z"></path>
      <path d="M302.771 5.99c0 1.021-0.832 1.849-1.858 1.849s-1.858-0.828-1.858-1.849c0-1.021 0.832-1.849 1.858-1.849s1.858 0.828 1.858 1.849z"></path>
      <path d="M306.486 3.678c0 1.021-0.832 1.849-1.858 1.849s-1.858-0.828-1.858-1.849c0-1.021 0.832-1.849 1.858-1.849s1.858 0.828 1.858 1.849z"></path>
      <path d="M293.484 17.087c0 1.021-0.832 1.849-1.858 1.849s-1.858-0.828-1.858-1.849c0-1.021 0.832-1.849 1.858-1.849s1.858 0.828 1.858 1.849z"></path>
      <path d="M297.198 14.775c0 1.021-0.832 1.849-1.858 1.849s-1.858-0.828-1.858-1.849c0-1.021 0.832-1.849 1.858-1.849s1.858 0.828 1.858 1.849z"></path>
      <path d="M301.842 12.001c0 1.021-0.832 1.849-1.858 1.849s-1.858-0.828-1.858-1.849c0-1.021 0.832-1.849 1.858-1.849s1.858 0.828 1.858 1.849z"></path>
      <path d="M305.557 9.689c0 1.021-0.832 1.849-1.858 1.849s-1.858-0.828-1.858-1.849c0-1.021 0.832-1.849 1.858-1.849s1.858 0.828 1.858 1.849z"></path>
      <path d="M274.909 8.302c0 1.021-0.728 1.849-1.625 1.849s-1.625-0.828-1.625-1.849c0-1.021 0.728-1.849 1.625-1.849s1.625 0.828 1.625 1.849z"></path>
      <path d="M278.624 5.99c0 1.021-0.728 1.849-1.625 1.849s-1.625-0.828-1.625-1.849c0-1.021 0.728-1.849 1.625-1.849s1.625 0.828 1.625 1.849z"></path>
      <path d="M283.267 3.216c0 1.021-0.728 1.849-1.625 1.849s-1.625-0.828-1.625-1.849c0-1.021 0.728-1.849 1.625-1.849s1.625 0.828 1.625 1.849z"></path>
      <path d="M281.178 10.151c0.898 0 1.625-0.828 1.625-1.849s-0.728-1.849-1.625-1.849c-0.897 0-1.625 0.828-1.625 1.849s0.728 1.849 1.625 1.849z"></path>
      <path d="M3.715 27.362c0 1.025-0.832 1.855-1.857 1.855s-1.857-0.831-1.857-1.855c0-1.025 0.832-1.855 1.857-1.855s1.857 0.831 1.857 1.855z"></path>
      <path d="M7.43 25.043c0 1.025-0.832 1.855-1.857 1.855s-1.857-0.831-1.857-1.855c0-1.025 0.832-1.855 1.857-1.855s1.857 0.831 1.857 1.855z"></path>
      <path d="M12.074 22.261c0 1.025-0.832 1.855-1.857 1.855s-1.857-0.831-1.857-1.855c0-1.025 0.832-1.855 1.857-1.855s1.857 0.831 1.857 1.855z"></path>
      <path d="M15.789 19.942c0 1.025-0.832 1.855-1.857 1.855s-1.857-0.831-1.857-1.855c0-1.025 0.832-1.855 1.857-1.855s1.857 0.831 1.857 1.855z"></path>
      <path d="M26.005 28.29c0 1.025-0.832 1.855-1.858 1.855s-1.858-0.831-1.858-1.855c0-1.025 0.832-1.855 1.858-1.855s1.858 0.831 1.858 1.855z"></path>
      <path d="M29.72 25.971c0 1.025-0.832 1.855-1.858 1.855s-1.858-0.831-1.858-1.855c0-1.025 0.832-1.855 1.858-1.855s1.858 0.831 1.858 1.855z"></path>
      <path d="M34.364 23.188c0 1.025-0.832 1.855-1.858 1.855s-1.858-0.831-1.858-1.855c0-1.025 0.832-1.855 1.858-1.855s1.858 0.831 1.858 1.855z"></path>
      <path d="M38.079 20.87c0 1.025-0.832 1.855-1.858 1.855s-1.858-0.831-1.858-1.855c0-1.025 0.832-1.855 1.858-1.855s1.858 0.831 1.858 1.855z"></path>
      <path d="M34.364 26.899c0 1.025-0.728 1.855-1.625 1.855s-1.625-0.831-1.625-1.855c0-1.025 0.728-1.855 1.625-1.855s1.625 0.831 1.625 1.855z"></path>
      <path d="M38.078 24.58c0 1.025-0.728 1.855-1.625 1.855s-1.625-0.831-1.625-1.855c0-1.025 0.728-1.855 1.625-1.855s1.625 0.831 1.625 1.855z"></path>
      <path d="M42.258 22.261c0 1.025-0.728 1.855-1.625 1.855s-1.625-0.831-1.625-1.855c0-1.025 0.728-1.855 1.625-1.855s1.625 0.831 1.625 1.855z"></path>
      <path d="M46.437 19.942c0 1.025-0.728 1.855-1.625 1.855s-1.625-0.831-1.625-1.855c0-1.025 0.728-1.855 1.625-1.855s1.625 0.831 1.625 1.855z"></path>
      <path d="M51.081 16.232c0 1.025-0.728 1.855-1.625 1.855s-1.625-0.831-1.625-1.855c0-1.025 0.728-1.855 1.625-1.855s1.625 0.831 1.625 1.855z"></path>
      <path d="M41.329 18.087c0 1.025-0.728 1.855-1.625 1.855s-1.625-0.831-1.625-1.855c0-1.025 0.728-1.855 1.625-1.855s1.625 0.831 1.625 1.855z"></path>
      <path d="M17.646 28.29c0 1.025-0.832 1.855-1.857 1.855s-1.857-0.831-1.857-1.855c0-1.025 0.832-1.855 1.857-1.855s1.857 0.831 1.857 1.855z"></path>
      <path d="M21.361 25.971c0 1.025-0.832 1.855-1.857 1.855s-1.858-0.831-1.858-1.855c0-1.025 0.832-1.855 1.858-1.855s1.858 0.831 1.858 1.855z"></path>
      <path d="M26.005 23.188c0 1.025-0.832 1.855-1.858 1.855s-1.858-0.831-1.858-1.855c0-1.025 0.832-1.855 1.858-1.855s1.858 0.831 1.858 1.855z"></path>
      <path d="M29.72 20.87c0 1.025-0.832 1.855-1.858 1.855s-1.858-0.831-1.858-1.855c0-1.025 0.832-1.855 1.858-1.855s1.858 0.831 1.858 1.855z"></path>
      <path d="M10.216 27.826c0 1.025-0.832 1.855-1.857 1.855s-1.857-0.831-1.857-1.855c0-1.025 0.832-1.855 1.857-1.855s1.857 0.831 1.857 1.855z"></path>
      <path d="M13.931 25.507c0 1.025-0.832 1.855-1.857 1.855s-1.857-0.831-1.857-1.855c0-1.025 0.832-1.855 1.857-1.855s1.857 0.831 1.857 1.855z"></path>
      <path d="M18.575 22.725c0 1.025-0.832 1.855-1.858 1.855s-1.857-0.831-1.857-1.855c0-1.025 0.832-1.855 1.857-1.855s1.858 0.831 1.858 1.855z"></path>
      <path d="M22.29 20.406c0 1.025-0.832 1.855-1.858 1.855s-1.858-0.831-1.858-1.855c0-1.025 0.832-1.855 1.858-1.855s1.858 0.831 1.858 1.855z"></path>
    </symbol>
    <symbol id="dots-desktop" viewBox="0 0 1200 384">
  <path d="M441.3346 32.7546a5.8584 6.2439 0 1 0 11.7168 0a5.8584 6.2439 0 1 0 -11.7168 0" />
  <path d="M454.0276 24.4294a5.8584 6.2439 0 1 0 11.7168 0a5.8584 6.2439 0 1 0 -11.7168 0" />
  <path d="M468.6736 15.0635a5.8584 6.2439 0 1 0 11.7168 0a5.8584 6.2439 0 1 0 -11.7168 0" />
  <path d="M482.3436 6.7383a5.8584 6.2439 0 1 0 11.7168 0a5.8584 6.2439 0 1 0 -11.7168 0" />
  <path d="M422.7826 54.6082a5.8584 6.2439 0 1 0 11.7168 0a5.8584 6.2439 0 1 0 -11.7168 0" />
  <path d="M435.4766 46.283a5.8584 6.2439 0 1 0 11.7168 0a5.8584 6.2439 0 1 0 -11.7168 0" />
  <path d="M450.1216 36.9172a5.8584 6.2439 0 1 0 11.7168 0a5.8584 6.2439 0 1 0 -11.7168 0" />
  <path d="M463.7916 28.592a5.8584 6.2439 0 1 0 11.7168 0a5.8584 6.2439 0 1 0 -11.7168 0" />
  <path d="M394.4666 55.6489a5.8584 6.2439 0 1 0 11.7168 0a5.8584 6.2439 0 1 0 -11.7168 0" />
  <path d="M407.1606 47.3237a5.8584 6.2439 0 1 0 11.7168 0a5.8584 6.2439 0 1 0 -11.7168 0" />
  <path d="M421.8066 37.9578a5.8584 6.2439 0 1 0 11.7168 0a5.8584 6.2439 0 1 0 -11.7168 0" />
  <path d="M435.4766 29.6326a5.8584 6.2439 0 1 0 11.7168 0a5.8584 6.2439 0 1 0 -11.7168 0" />
  <path d="M378.8446 79.5837a5.8584 6.2439 0 1 0 11.7168 0a5.8584 6.2439 0 1 0 -11.7168 0" />
  <path d="M391.5376 71.2586a5.8584 6.2439 0 1 0 11.7168 0a5.8584 6.2439 0 1 0 -11.7168 0" />
  <path d="M406.1836 61.8928a5.8584 6.2439 0 1 0 11.7168 0a5.8584 6.2439 0 1 0 -11.7168 0" />
  <path d="M419.8536 53.5676a5.8584 6.2439 0 1 0 11.7168 0a5.8584 6.2439 0 1 0 -11.7168 0" />
  <path d="M367.1276 101.438a5.8584 6.2439 0 1 0 11.7168 0a5.8584 6.2439 0 1 0 -11.7168 0" />
  <path d="M379.8206 93.1123a5.8584 6.2439 0 1 0 11.7168 0a5.8584 6.2439 0 1 0 -11.7168 0" />
  <path d="M394.4666 83.7463a5.8584 6.2439 0 1 0 11.7168 0a5.8584 6.2439 0 1 0 -11.7168 0" />
  <path d="M408.1366 75.4212a5.8584 6.2439 0 1 0 11.7168 0a5.8584 6.2439 0 1 0 -11.7168 0" />
  <path transform="matrix(0.999999 0.00156002 -0.00137335 0.999999 364.208 123.3)" d="M-5.8584 0a5.8584 6.2439 0 1 0 11.7168 0a5.8584 6.2439 0 1 0 -11.7168 0" />
  <path transform="matrix(0.999999 0.00156002 -0.00137335 0.999999 376.912 114.995)" d="M-5.8584 0a5.8584 6.2439 0 1 0 11.7168 0a5.8584 6.2439 0 1 0 -11.7168 0" />
  <path transform="matrix(0.999999 0.00156002 -0.00137335 0.999999 391.572 105.652)" d="M-5.8584 0a5.8584 6.2439 0 1 0 11.7168 0a5.8584 6.2439 0 1 0 -11.7168 0" />
  <path transform="matrix(0.999999 0.00156002 -0.00137335 0.999999 405.253 97.348)" d="M-5.8584 0a5.8584 6.2439 0 1 0 11.7168 0a5.8584 6.2439 0 1 0 -11.7168 0" />
  <path transform="matrix(0.999999 0.00156002 -0.00137335 0.999999 240.228 160.806)" d="M-5.8584 0a5.8584 6.2439 0 1 0 11.7168 0a5.8584 6.2439 0 1 0 -11.7168 0" />
  <path transform="matrix(0.999999 0.00156002 -0.00137335 0.999999 253.909 152.502)" d="M-5.8584 0a5.8584 6.2439 0 1 0 11.7168 0a5.8584 6.2439 0 1 0 -11.7168 0" />
  <path transform="matrix(0.999999 0.00156002 -0.00137335 0.999999 325.151 132.666)" d="M-5.8584 0a5.8584 6.2439 0 1 0 11.7168 0a5.8584 6.2439 0 1 0 -11.7168 0" />
  <path transform="matrix(0.999999 0.00156002 -0.00137335 0.999999 337.856 124.361)" d="M-5.8584 0a5.8584 6.2439 0 1 0 11.7168 0a5.8584 6.2439 0 1 0 -11.7168 0" />
  <path transform="matrix(0.999999 0.00156002 -0.00137335 0.999999 352.514 115.018)" d="M-5.8584 0a5.8584 6.2439 0 1 0 11.7168 0a5.8584 6.2439 0 1 0 -11.7168 0" />
  <path transform="matrix(0.999999 0.00156002 -0.00137335 0.999999 366.196 106.713)" d="M-5.8584 0a5.8584 6.2439 0 1 0 11.7168 0a5.8584 6.2439 0 1 0 -11.7168 0" />
  <path d="M235.3126 142.023a5.8584 6.2439 0 1 0 11.7168 0a5.8584 6.2439 0 1 0 -11.7168 0" />
  <path d="M248.9826 133.698a5.8584 6.2439 0 1 0 11.7168 0a5.8584 6.2439 0 1 0 -11.7168 0" />
  <path d="M267.5346 124.332a5.8584 6.2439 0 1 0 11.7168 0a5.8584 6.2439 0 1 0 -11.7168 0" />
  <path d="M280.2276 116.007a5.8584 6.2439 0 1 0 11.7168 0a5.8584 6.2439 0 1 0 -11.7168 0" />
  <path d="M294.8736 106.64a5.8584 6.2439 0 1 0 11.7168 0a5.8584 6.2439 0 1 0 -11.7168 0" />
  <path d="M308.5436 98.3152a5.8584 6.2439 0 1 0 11.7168 0a5.8584 6.2439 0 1 0 -11.7168 0" />
  <path d="M292.9206 136.819a5.8584 6.2439 0 1 0 11.7168 0a5.8584 6.2439 0 1 0 -11.7168 0" />
  <path d="M305.6146 128.494a5.8584 6.2439 0 1 0 11.7168 0a5.8584 6.2439 0 1 0 -11.7168 0" />
  <path d="M320.2606 119.129a5.8584 6.2439 0 1 0 11.7168 0a5.8584 6.2439 0 1 0 -11.7168 0" />
  <path d="M333.9306 110.803a5.8584 6.2439 0 1 0 11.7168 0a5.8584 6.2439 0 1 0 -11.7168 0" />
  <path d="M294.8736 120.169a5.8584 6.2439 0 1 0 11.7168 0a5.8584 6.2439 0 1 0 -11.7168 0" />
  <path d="M307.5676 111.844a5.8584 6.2439 0 1 0 11.7168 0a5.8584 6.2439 0 1 0 -11.7168 0" />
  <path d="M322.2136 102.478a5.8584 6.2439 0 1 0 11.7168 0a5.8584 6.2439 0 1 0 -11.7168 0" />
  <path d="M335.8826 94.1528a5.8584 6.2439 0 1 0 11.7168 0a5.8584 6.2439 0 1 0 -11.7168 0" />
  <path d="M241.1716 126.413a5.8584 6.2439 0 1 0 11.7168 0a5.8584 6.2439 0 1 0 -11.7168 0" />
  <path d="M253.8646 118.088a5.8584 6.2439 0 1 0 11.7168 0a5.8584 6.2439 0 1 0 -11.7168 0" />
  <path d="M268.5116 108.722a5.8584 6.2439 0 1 0 11.7168 0a5.8584 6.2439 0 1 0 -11.7168 0" />
  <path d="M282.1806 100.397a5.8584 6.2439 0 1 0 11.7168 0a5.8584 6.2439 0 1 0 -11.7168 0" />
  <path d="M0 358.478a5.8584 6.2439 0 1 0 11.7168 0a5.8584 6.2439 0 1 0 -11.7168 0" />
  <path d="M12.6929 350.153a5.8584 6.2439 0 1 0 11.7168 0a5.8584 6.2439 0 1 0 -11.7168 0" />
  <path d="M27.3394 340.787a5.8584 6.2439 0 1 0 11.7168 0a5.8584 6.2439 0 1 0 -11.7168 0" />
  <path d="M41.0088 332.462a5.8584 6.2439 0 1 0 11.7168 0a5.8584 6.2439 0 1 0 -11.7168 0" />
  <path d="M74.2066 361.6a5.8584 6.2439 0 1 0 11.7168 0a5.8584 6.2439 0 1 0 -11.7168 0" />
  <path d="M86.8994 353.275a5.8584 6.2439 0 1 0 11.7168 0a5.8584 6.2439 0 1 0 -11.7168 0" />
  <path d="M101.5456 343.909a5.8584 6.2439 0 1 0 11.7168 0a5.8584 6.2439 0 1 0 -11.7168 0" />
  <path d="M115.2156 335.584a5.8584 6.2439 0 1 0 11.7168 0a5.8584 6.2439 0 1 0 -11.7168 0" />
  <path d="M104.4756 357.438a5.8584 6.2439 0 1 0 11.7168 0a5.8584 6.2439 0 1 0 -11.7168 0" />
  <path d="M117.1686 349.112a5.8584 6.2439 0 1 0 11.7168 0a5.8584 6.2439 0 1 0 -11.7168 0" />
  <path d="M131.8146 339.746a5.8584 6.2439 0 1 0 11.7168 0a5.8584 6.2439 0 1 0 -11.7168 0" />
  <path d="M145.4846 331.421a5.8584 6.2439 0 1 0 11.7168 0a5.8584 6.2439 0 1 0 -11.7168 0" />
  <path d="M160.1306 318.933a5.8584 6.2439 0 1 0 11.7168 0a5.8584 6.2439 0 1 0 -11.7168 0" />
  <path d="M128.8856 326.218a5.8584 6.2439 0 1 0 11.7168 0a5.8584 6.2439 0 1 0 -11.7168 0" />
  <path d="M1018.3916 376.672a5.8584 6.2388 0 1 0 11.7168 0a5.8584 6.2388 0 1 0 -11.7168 0" />
  <path d="M1031.0816 368.353a5.8584 6.2388 0 1 0 11.7168 0a5.8584 6.2388 0 1 0 -11.7168 0" />
  <path d="M1045.7316 358.995a5.8584 6.2388 0 1 0 11.7168 0a5.8584 6.2388 0 1 0 -11.7168 0" />
  <path d="M1059.4016 350.677a5.8584 6.2388 0 1 0 11.7168 0a5.8584 6.2388 0 1 0 -11.7168 0" />
  <path d="M1051.5816 372.513a5.8584 6.2388 0 1 0 11.7168 0a5.8584 6.2388 0 1 0 -11.7168 0" />
  <path d="M1064.2816 364.194a5.8584 6.2388 0 1 0 11.7168 0a5.8584 6.2388 0 1 0 -11.7168 0" />
  <path d="M1078.9216 354.836a5.8584 6.2388 0 1 0 11.7168 0a5.8584 6.2388 0 1 0 -11.7168 0" />
  <path d="M1092.5916 346.518a5.8584 6.2388 0 1 0 11.7168 0a5.8584 6.2388 0 1 0 -11.7168 0" />
  <path d="M1079.9016 369.393a5.8584 6.2388 0 1 0 11.7168 0a5.8584 6.2388 0 1 0 -11.7168 0" />
  <path d="M1092.5916 361.075a5.8584 6.2388 0 1 0 11.7168 0a5.8584 6.2388 0 1 0 -11.7168 0" />
  <path d="M1107.2416 351.717a5.8584 6.2388 0 1 0 11.7168 0a5.8584 6.2388 0 1 0 -11.7168 0" />
  <path d="M1120.9116 343.398a5.8584 6.2388 0 1 0 11.7168 0a5.8584 6.2388 0 1 0 -11.7168 0" />
  <path d="M1107.2416 365.234a5.8584 6.2388 0 1 0 11.7168 0a5.8584 6.2388 0 1 0 -11.7168 0" />
  <path d="M1119.9316 356.916a5.8584 6.2388 0 1 0 11.7168 0a5.8584 6.2388 0 1 0 -11.7168 0" />
  <path d="M1134.5816 347.557a5.8584 6.2388 0 1 0 11.7168 0a5.8584 6.2388 0 1 0 -11.7168 0" />
  <path d="M1148.2516 339.239a5.8584 6.2388 0 1 0 11.7168 0a5.8584 6.2388 0 1 0 -11.7168 0" />
  <path d="M1116.0316 376.672a5.8584 6.2388 0 1 0 11.7168 0a5.8584 6.2388 0 1 0 -11.7168 0" />
  <path d="M1128.7216 368.353a5.8584 6.2388 0 1 0 11.7168 0a5.8584 6.2388 0 1 0 -11.7168 0" />
  <path d="M1146.3016 377.712a5.8584 6.2388 0 1 0 11.7168 0a5.8584 6.2388 0 1 0 -11.7168 0" />
  <path d="M1143.3716 358.995a5.8584 6.2388 0 1 0 11.7168 0a5.8584 6.2388 0 1 0 -11.7168 0" />
  <path d="M1160.9416 368.353a5.8584 6.2388 0 1 0 11.7168 0a5.8584 6.2388 0 1 0 -11.7168 0" />
  <path d="M1174.6116 377.712a5.8584 6.2388 0 1 0 11.7168 0a5.8584 6.2388 0 1 0 -11.7168 0" />
  <path d="M1157.0416 350.677a5.8584 6.2388 0 1 0 11.7168 0a5.8584 6.2388 0 1 0 -11.7168 0" />
  <path d="M1174.6116 360.035a5.8584 6.2388 0 1 0 11.7168 0a5.8584 6.2388 0 1 0 -11.7168 0" />
  <path d="M1188.2816 369.393a5.8584 6.2388 0 1 0 11.7168 0a5.8584 6.2388 0 1 0 -11.7168 0" />
  <path d="M958.8286 308.045a5.8584 6.2388 0 1 0 11.7168 0a5.8584 6.2388 0 1 0 -11.7168 0" />
  <path d="M971.5216 299.727a5.8584 6.2388 0 1 0 11.7168 0a5.8584 6.2388 0 1 0 -11.7168 0" />
  <path d="M986.1676 290.369a5.8584 6.2388 0 1 0 11.7168 0a5.8584 6.2388 0 1 0 -11.7168 0" />
  <path d="M999.8416 282.05a5.8584 6.2388 0 1 0 11.7168 0a5.8584 6.2388 0 1 0 -11.7168 0" />
  <path d="M934.4176 307.005a5.8584 6.2388 0 1 0 11.7168 0a5.8584 6.2388 0 1 0 -11.7168 0" />
  <path d="M947.1116 298.687a5.8584 6.2388 0 1 0 11.7168 0a5.8584 6.2388 0 1 0 -11.7168 0" />
  <path d="M961.7576 289.329a5.8584 6.2388 0 1 0 11.7168 0a5.8584 6.2388 0 1 0 -11.7168 0" />
  <path d="M975.4266 281.01a5.8584 6.2388 0 1 0 11.7168 0a5.8584 6.2388 0 1 0 -11.7168 0" />
  <path d="M989.0976 376.672a5.8584 6.2388 0 1 0 11.7168 0a5.8584 6.2388 0 1 0 -11.7168 0" />
  <path d="M1001.7916 368.353a5.8584 6.2388 0 1 0 11.7168 0a5.8584 6.2388 0 1 0 -11.7168 0" />
  <path d="M1016.4316 358.995a5.8584 6.2388 0 1 0 11.7168 0a5.8584 6.2388 0 1 0 -11.7168 0" />
  <path d="M1030.1016 350.677a5.8584 6.2388 0 1 0 11.7168 0a5.8584 6.2388 0 1 0 -11.7168 0" />
  <path d="M973.4746 370.433a5.8584 6.2388 0 1 0 11.7168 0a5.8584 6.2388 0 1 0 -11.7168 0" />
  <path d="M986.1676 362.115a5.8584 6.2388 0 1 0 11.7168 0a5.8584 6.2388 0 1 0 -11.7168 0" />
  <path d="M1000.8116 352.756a5.8584 6.2388 0 1 0 11.7168 0a5.8584 6.2388 0 1 0 -11.7168 0" />
  <path d="M1014.4816 344.438a5.8584 6.2388 0 1 0 11.7168 0a5.8584 6.2388 0 1 0 -11.7168 0" />
  <path d="M979.3326 348.597a5.8584 6.2388 0 1 0 11.7168 0a5.8584 6.2388 0 1 0 -11.7168 0" />
  <path d="M992.0266 340.279a5.8584 6.2388 0 1 0 11.7168 0a5.8584 6.2388 0 1 0 -11.7168 0" />
  <path d="M1006.6716 330.921a5.8584 6.2388 0 1 0 11.7168 0a5.8584 6.2388 0 1 0 -11.7168 0" />
  <path d="M1020.3416 322.602a5.8584 6.2388 0 1 0 11.7168 0a5.8584 6.2388 0 1 0 -11.7168 0" />
  <path transform="matrix(0.986931 -0.161124 0.142489 0.989794 680.19 303.798)" d="M-5.8674 0a5.8675 6.2303 0 1 0 11.7349 0a5.8675 6.2303 0 1 0 -11.7349 0" />
  <path transform="matrix(0.986931 -0.161124 0.142489 0.989794 691.553 293.528)" d="M-5.8674 0a5.8675 6.2303 0 1 0 11.7349 0a5.8675 6.2303 0 1 0 -11.7349 0" />
  <path transform="matrix(0.986931 -0.161124 0.142489 0.989794 704.699 281.914)" d="M-5.8674 0a5.8675 6.2303 0 1 0 11.7349 0a5.8675 6.2303 0 1 0 -11.7349 0" />
  <path transform="matrix(0.986931 -0.161124 0.142489 0.989794 717.027 271.486)" d="M-5.8674 0a5.8675 6.2303 0 1 0 11.7349 0a5.8675 6.2303 0 1 0 -11.7349 0" />
  <path d="M979.3326 312.204a5.8584 6.2388 0 1 0 11.7168 0a5.8584 6.2388 0 1 0 -11.7168 0" />
  <path d="M992.0266 303.886a5.8584 6.2388 0 1 0 11.7168 0a5.8584 6.2388 0 1 0 -11.7168 0" />
  <path d="M1006.6716 294.528a5.8584 6.2388 0 1 0 11.7168 0a5.8584 6.2388 0 1 0 -11.7168 0" />
  <path d="M1020.3416 286.209a5.8584 6.2388 0 1 0 11.7168 0a5.8584 6.2388 0 1 0 -11.7168 0" />
  <path d="M976.4036 331.96a5.8584 6.2388 0 1 0 11.7168 0a5.8584 6.2388 0 1 0 -11.7168 0" />
  <path d="M989.0976 323.642a5.8584 6.2388 0 1 0 11.7168 0a5.8584 6.2388 0 1 0 -11.7168 0" />
  <path d="M1003.7416 314.284a5.8584 6.2388 0 1 0 11.7168 0a5.8584 6.2388 0 1 0 -11.7168 0" />
  <path d="M1017.4116 305.965a5.8584 6.2388 0 1 0 11.7168 0a5.8584 6.2388 0 1 0 -11.7168 0" />
  <path d="M914.8906 301.806a5.8584 6.2388 0 1 0 11.7168 0a5.8584 6.2388 0 1 0 -11.7168 0" />
  <path d="M927.5836 293.488a5.8584 6.2388 0 1 0 11.7168 0a5.8584 6.2388 0 1 0 -11.7168 0" />
  <path d="M942.2296 284.13a5.8584 6.2388 0 1 0 11.7168 0a5.8584 6.2388 0 1 0 -11.7168 0" />
  <path d="M947.112 308.045C950.347 308.045 952.97 305.252 952.97 301.806C952.97 298.361 950.347 295.567 947.112 295.567C943.876 295.567 941.253 298.361 941.253 301.806C941.253 305.252 943.876 308.045 947.112 308.045Z" />
  <path d="M46.8672 360.559a5.8584 6.2439 0 1 0 11.7168 0a5.8584 6.2439 0 1 0 -11.7168 0" />
  <path d="M59.5606 352.234a5.8584 6.2439 0 1 0 11.7168 0a5.8584 6.2439 0 1 0 -11.7168 0" />
  <path d="M74.2066 342.868a5.8584 6.2439 0 1 0 11.7168 0a5.8584 6.2439 0 1 0 -11.7168 0" />
  <path d="M87.8765 334.543a5.8584 6.2439 0 1 0 11.7168 0a5.8584 6.2439 0 1 0 -11.7168 0" />
  <path d="M22.4575 359.519a5.8584 6.2439 0 1 0 11.7168 0a5.8584 6.2439 0 1 0 -11.7168 0" />
  <path d="M35.1504 351.193a5.8584 6.2439 0 1 0 11.7168 0a5.8584 6.2439 0 1 0 -11.7168 0" />
  <path d="M49.7964 341.828a5.8584 6.2439 0 1 0 11.7168 0a5.8584 6.2439 0 1 0 -11.7168 0" />
  <path d="M63.4658 333.503a5.8584 6.2439 0 1 0 11.7168 0a5.8584 6.2439 0 1 0 -11.7168 0" />
  <path d="M441.3346 56.6895a5.8584 6.2439 0 1 0 11.7168 0a5.8584 6.2439 0 1 0 -11.7168 0" />
  <path d="M454.0276 48.3643a5.8584 6.2439 0 1 0 11.7168 0a5.8584 6.2439 0 1 0 -11.7168 0" />
  <path d="M468.6736 38.9985a5.8584 6.2439 0 1 0 11.7168 0a5.8584 6.2439 0 1 0 -11.7168 0" />
  <path d="M482.3436 30.6733a5.8584 6.2439 0 1 0 11.7168 0a5.8584 6.2439 0 1 0 -11.7168 0" />
  <path d="M439.3816 99.3562a5.8584 6.2439 0 1 0 11.7168 0a5.8584 6.2439 0 1 0 -11.7168 0" />
  <path d="M452.0746 91.031a5.8584 6.2439 0 1 0 11.7168 0a5.8584 6.2439 0 1 0 -11.7168 0" />
  <path d="M466.7216 81.6648a5.8584 6.2439 0 1 0 11.7168 0a5.8584 6.2439 0 1 0 -11.7168 0" />
  <path d="M480.3906 73.3396a5.8584 6.2439 0 1 0 11.7168 0a5.8584 6.2439 0 1 0 -11.7168 0" />
  <path d="M442.3106 77.5024a5.8584 6.2439 0 1 0 11.7168 0a5.8584 6.2439 0 1 0 -11.7168 0" />
  <path d="M455.0036 69.1773a5.8584 6.2439 0 1 0 11.7168 0a5.8584 6.2439 0 1 0 -11.7168 0" />
  <path d="M469.6506 59.8115a5.8584 6.2439 0 1 0 11.7168 0a5.8584 6.2439 0 1 0 -11.7168 0" />
  <path d="M483.3196 51.4863a5.8584 6.2439 0 1 0 11.7168 0a5.8584 6.2439 0 1 0 -11.7168 0" />
  <path d="M440.3576 120.169a5.8584 6.2439 0 1 0 11.7168 0a5.8584 6.2439 0 1 0 -11.7168 0" />
  <path d="M453.0516 111.844a5.8584 6.2439 0 1 0 11.7168 0a5.8584 6.2439 0 1 0 -11.7168 0" />
  <path d="M467.6976 102.478a5.8584 6.2439 0 1 0 11.7168 0a5.8584 6.2439 0 1 0 -11.7168 0" />
  <path d="M481.3666 94.1528a5.8584 6.2439 0 1 0 11.7168 0a5.8584 6.2439 0 1 0 -11.7168 0" />
  <path d="M446.2166 134.738a5.8584 6.2439 0 1 0 11.7168 0a5.8584 6.2439 0 1 0 -11.7168 0" />
  <path d="M458.9096 126.413a5.8584 6.2439 0 1 0 11.7168 0a5.8584 6.2439 0 1 0 -11.7168 0" />
  <path d="M473.5556 117.047a5.8584 6.2439 0 1 0 11.7168 0a5.8584 6.2439 0 1 0 -11.7168 0" />
  <path d="M487.2256 108.722a5.8584 6.2439 0 1 0 11.7168 0a5.8584 6.2439 0 1 0 -11.7168 0" />
  <path d="M458.9096 146.185a5.8584 6.2439 0 1 0 11.7168 0a5.8584 6.2439 0 1 0 -11.7168 0" />
  <path d="M471.6026 137.86a5.8584 6.2439 0 1 0 11.7168 0a5.8584 6.2439 0 1 0 -11.7168 0" />
  <path d="M486.2486 128.494a5.8584 6.2439 0 1 0 11.7168 0a5.8584 6.2439 0 1 0 -11.7168 0" />
  <path d="M499.9186 120.169a5.8584 6.2439 0 1 0 11.7168 0a5.8584 6.2439 0 1 0 -11.7168 0" />
  <path d="M475.5086 155.551a5.8584 6.2439 0 1 0 11.7168 0a5.8584 6.2439 0 1 0 -11.7168 0" />
  <path d="M488.2016 147.226a5.8584 6.2439 0 1 0 11.7168 0a5.8584 6.2439 0 1 0 -11.7168 0" />
  <path d="M502.8476 137.86a5.8584 6.2439 0 1 0 11.7168 0a5.8584 6.2439 0 1 0 -11.7168 0" />
  <path d="M516.5176 129.535a5.8584 6.2439 0 1 0 11.7168 0a5.8584 6.2439 0 1 0 -11.7168 0" />
  <path d="M495.0366 157.633a5.8584 6.2439 0 1 0 11.7168 0a5.8584 6.2439 0 1 0 -11.7168 0" />
  <path d="M507.7296 149.307a5.8584 6.2439 0 1 0 11.7168 0a5.8584 6.2439 0 1 0 -11.7168 0" />
  <path d="M522.3756 139.942a5.8584 6.2439 0 1 0 11.7168 0a5.8584 6.2439 0 1 0 -11.7168 0" />
  <path d="M536.0456 131.616a5.8584 6.2439 0 1 0 11.7168 0a5.8584 6.2439 0 1 0 -11.7168 0" />
  <path d="M514.5646 161.795a5.8584 6.2439 0 1 0 11.7168 0a5.8584 6.2439 0 1 0 -11.7168 0" />
  <path d="M527.2586 153.47a5.8584 6.2439 0 1 0 11.7168 0a5.8584 6.2439 0 1 0 -11.7168 0" />
  <path d="M541.9046 144.104a5.8584 6.2439 0 1 0 11.7168 0a5.8584 6.2439 0 1 0 -11.7168 0" />
  <path d="M555.5746 135.779a5.8584 6.2439 0 1 0 11.7168 0a5.8584 6.2439 0 1 0 -11.7168 0" />
  <path d="M509.6836 181.568a5.8584 6.2439 0 1 0 11.7168 0a5.8584 6.2439 0 1 0 -11.7168 0" />
  <path d="M522.3756 173.242a5.8584 6.2439 0 1 0 11.7168 0a5.8584 6.2439 0 1 0 -11.7168 0" />
  <path d="M537.0216 163.876a5.8584 6.2439 0 1 0 11.7168 0a5.8584 6.2439 0 1 0 -11.7168 0" />
  <path d="M550.6916 155.551a5.8584 6.2439 0 1 0 11.7168 0a5.8584 6.2439 0 1 0 -11.7168 0" />
  <path d="M507.7296 200.299a5.8584 6.2439 0 1 0 11.7168 0a5.8584 6.2439 0 1 0 -11.7168 0" />
  <path d="M520.4236 191.974a5.8584 6.2439 0 1 0 11.7168 0a5.8584 6.2439 0 1 0 -11.7168 0" />
  <path d="M535.0696 182.608a5.8584 6.2439 0 1 0 11.7168 0a5.8584 6.2439 0 1 0 -11.7168 0" />
  <path d="M548.7386 174.283a5.8584 6.2439 0 1 0 11.7168 0a5.8584 6.2439 0 1 0 -11.7168 0" />
  <path d="M500.8946 224.234a5.8584 6.2439 0 1 0 11.7168 0a5.8584 6.2439 0 1 0 -11.7168 0" />
  <path d="M513.5886 215.909a5.8584 6.2439 0 1 0 11.7168 0a5.8584 6.2439 0 1 0 -11.7168 0" />
  <path d="M528.2346 206.543a5.8584 6.2439 0 1 0 11.7168 0a5.8584 6.2439 0 1 0 -11.7168 0" />
  <path d="M541.9046 198.218a5.8584 6.2439 0 1 0 11.7168 0a5.8584 6.2439 0 1 0 -11.7168 0" />
  <path d="M497.9656 245.047a5.8584 6.2439 0 1 0 11.7168 0a5.8584 6.2439 0 1 0 -11.7168 0" />
  <path d="M510.6586 236.722a5.8584 6.2439 0 1 0 11.7168 0a5.8584 6.2439 0 1 0 -11.7168 0" />
  <path d="M525.3046 227.356a5.8584 6.2439 0 1 0 11.7168 0a5.8584 6.2439 0 1 0 -11.7168 0" />
  <path d="M538.9746 219.031a5.8584 6.2439 0 1 0 11.7168 0a5.8584 6.2439 0 1 0 -11.7168 0" />
  <path d="M494.0596 266.901a5.8584 6.2439 0 1 0 11.7168 0a5.8584 6.2439 0 1 0 -11.7168 0" />
  <path d="M506.7536 258.576a5.8584 6.2439 0 1 0 11.7168 0a5.8584 6.2439 0 1 0 -11.7168 0" />
  <path d="M521.3996 249.21a5.8584 6.2439 0 1 0 11.7168 0a5.8584 6.2439 0 1 0 -11.7168 0" />
  <path d="M535.0696 240.885a5.8584 6.2439 0 1 0 11.7168 0a5.8584 6.2439 0 1 0 -11.7168 0" />
  <path d="M492.1066 284.592a5.8584 6.2439 0 1 0 11.7168 0a5.8584 6.2439 0 1 0 -11.7168 0" />
  <path d="M504.8006 276.267a5.8584 6.2439 0 1 0 11.7168 0a5.8584 6.2439 0 1 0 -11.7168 0" />
  <path d="M519.4466 266.901a5.8584 6.2439 0 1 0 11.7168 0a5.8584 6.2439 0 1 0 -11.7168 0" />
  <path d="M533.1166 258.576a5.8584 6.2439 0 1 0 11.7168 0a5.8584 6.2439 0 1 0 -11.7168 0" />
  <path d="M490.1546 303.324a5.8584 6.2439 0 1 0 11.7168 0a5.8584 6.2439 0 1 0 -11.7168 0" />
  <path d="M502.8486 294.998a5.8584 6.2439 0 1 0 11.7168 0a5.8584 6.2439 0 1 0 -11.7168 0" />
  <path d="M517.4946 285.633a5.8584 6.2439 0 1 0 11.7168 0a5.8584 6.2439 0 1 0 -11.7168 0" />
  <path d="M531.1636 277.307a5.8584 6.2439 0 1 0 11.7168 0a5.8584 6.2439 0 1 0 -11.7168 0" />
  <path d="M496.0126 318.933a5.8584 6.2439 0 1 0 11.7168 0a5.8584 6.2439 0 1 0 -11.7168 0" />
  <path d="M508.7056 310.608a5.8584 6.2439 0 1 0 11.7168 0a5.8584 6.2439 0 1 0 -11.7168 0" />
  <path d="M523.3516 301.242a5.8584 6.2439 0 1 0 11.7168 0a5.8584 6.2439 0 1 0 -11.7168 0" />
  <path d="M537.0216 292.917a5.8584 6.2439 0 1 0 11.7168 0a5.8584 6.2439 0 1 0 -11.7168 0" />
  <path d="M510.6596 327.259a5.8584 6.2439 0 1 0 11.7168 0a5.8584 6.2439 0 1 0 -11.7168 0" />
  <path d="M523.3526 318.933a5.8584 6.2439 0 1 0 11.7168 0a5.8584 6.2439 0 1 0 -11.7168 0" />
  <path d="M537.9986 309.568a5.8584 6.2439 0 1 0 11.7168 0a5.8584 6.2439 0 1 0 -11.7168 0" />
  <path d="M551.6676 301.242a5.8584 6.2439 0 1 0 11.7168 0a5.8584 6.2439 0 1 0 -11.7168 0" />
  <path d="M527.2586 332.462a5.8584 6.2439 0 1 0 11.7168 0a5.8584 6.2439 0 1 0 -11.7168 0" />
  <path d="M539.9516 324.137a5.8584 6.2439 0 1 0 11.7168 0a5.8584 6.2439 0 1 0 -11.7168 0" />
  <path d="M554.5976 314.771a5.8584 6.2439 0 1 0 11.7168 0a5.8584 6.2439 0 1 0 -11.7168 0" />
  <path d="M568.2666 306.446a5.8584 6.2439 0 1 0 11.7168 0a5.8584 6.2439 0 1 0 -11.7168 0" />
  <path d="M548.7386 333.503a5.8584 6.2439 0 1 0 11.7168 0a5.8584 6.2439 0 1 0 -11.7168 0" />
  <path d="M561.4326 325.177a5.8584 6.2439 0 1 0 11.7168 0a5.8584 6.2439 0 1 0 -11.7168 0" />
  <path d="M576.0786 315.811a5.8584 6.2439 0 1 0 11.7168 0a5.8584 6.2439 0 1 0 -11.7168 0" />
  <path d="M589.7476 307.486a5.8584 6.2439 0 1 0 11.7168 0a5.8584 6.2439 0 1 0 -11.7168 0" />
  <path d="M574.1256 333.503a5.8584 6.2439 0 1 0 11.7168 0a5.8584 6.2439 0 1 0 -11.7168 0" />
  <path d="M586.8186 325.177a5.8584 6.2439 0 1 0 11.7168 0a5.8584 6.2439 0 1 0 -11.7168 0" />
  <path d="M601.4646 315.811a5.8584 6.2439 0 1 0 11.7168 0a5.8584 6.2439 0 1 0 -11.7168 0" />
  <path d="M615.1346 307.486a5.8584 6.2439 0 1 0 11.7168 0a5.8584 6.2439 0 1 0 -11.7168 0" />
  <path d="M595.6056 332.462a5.8584 6.2439 0 1 0 11.7168 0a5.8584 6.2439 0 1 0 -11.7168 0" />
  <path d="M608.2986 324.137a5.8584 6.2439 0 1 0 11.7168 0a5.8584 6.2439 0 1 0 -11.7168 0" />
  <path d="M622.9456 314.771a5.8584 6.2439 0 1 0 11.7168 0a5.8584 6.2439 0 1 0 -11.7168 0" />
  <path d="M636.6146 306.446a5.8584 6.2439 0 1 0 11.7168 0a5.8584 6.2439 0 1 0 -11.7168 0" />
  <path d="M620.0166 331.421a5.8584 6.2439 0 1 0 11.7168 0a5.8584 6.2439 0 1 0 -11.7168 0" />
  <path d="M632.7096 323.096a5.8584 6.2439 0 1 0 11.7168 0a5.8584 6.2439 0 1 0 -11.7168 0" />
  <path d="M647.3546 313.73a5.8584 6.2439 0 1 0 11.7168 0a5.8584 6.2439 0 1 0 -11.7168 0" />
  <path d="M661.0246 305.405a5.8584 6.2439 0 1 0 11.7168 0a5.8584 6.2439 0 1 0 -11.7168 0" />
  <path d="M642.4736 304.364a5.8584 6.2439 0 1 0 11.7168 0a5.8584 6.2439 0 1 0 -11.7168 0" />
  <path d="M655.1666 296.039a5.8584 6.2439 0 1 0 11.7168 0a5.8584 6.2439 0 1 0 -11.7168 0" />
  <path d="M669.8126 286.673a5.8584 6.2439 0 1 0 11.7168 0a5.8584 6.2439 0 1 0 -11.7168 0" />
  <path d="M683.4826 278.348a5.8584 6.2439 0 1 0 11.7168 0a5.8584 6.2439 0 1 0 -11.7168 0" />
</symbol>
  </defs>
</svg>
