<svg xmlns="http://www.w3.org/2000/svg" aria-hidden="true" style="position:absolute;width:0;height:0;overflow:hidden">
  <defs>
    <symbol id="icon-logo" viewBox="0 0 32 32">
      <path d="M16.325 14.204c1.533-4.148-1.641-6.418-3.745-7.91-.402-.305-.804-.59-1.13-.85a3.955 3.955 0 0 1-1.267-4.095.433.433 0 0 0-.334-.539.444.444 0 0 0-.234.017 7.134 7.134 0 0 0-1.951 1.159A4.626 4.626 0 0 0 5.858 5.64a5.396 5.396 0 0 0-1.042 1.087 3.976 3.976 0 0 0-.768 2.547c-.644.59-1.124 1.337-1.393 2.167s-.317 1.716-.14 2.57a1.363 1.363 0 0 0 .716 2.531h.028v2.359a.9.9 0 0 0 .905.902h.704l1.146 9.908a.9.9 0 0 0 .897.803h4.771a.905.905 0 0 0 .901-.802l1.146-9.908h.704a.9.9 0 0 0 .905-.902v-2.359h.028a1.371 1.371 0 0 0 .97-2.343l-.012.004zM5.999 6.679c.579 2.17 2.816 3.025 4.855 3.787a.43.43 0 0 0 .37.042.434.434 0 0 0 .269-.257.429.429 0 0 0-.027-.37.446.446 0 0 0-.303-.217c-2.196-.83-4.268-1.605-4.425-3.823A3.7 3.7 0 0 1 8.206 2.66c.306-.254.634-.479.981-.674a5.278 5.278 0 0 0 0 .834 4.76 4.76 0 0 0 1.697 3.302c.334.285.748.578 1.207.891 1.058.758 2.261 1.605 3.025 2.752a4.27 4.27 0 0 1 .438 4.071h-1.778c-3.664 0-7.876-1.011-8.708-3.843a3.241 3.241 0 0 1 .949-3.294l-.02-.02zm3.299 13.674 1.344 1.34-1.344 1.34-1.343-1.348 1.343-1.332zm3.081 3.518-1.11 1.107-1.344-1.34 1.344-1.336 1.166 1.159-.056.409zm-3.081 3.073-1.343-1.34 1.343-1.34 1.344 1.34-1.344 1.34zm-.616-3.297-1.343 1.34-1.118-1.115-.048-.401 1.166-1.159 1.343 1.336zm-1.963 1.957-.269.269-.068-.61.338.341zm-.141 1.372.76-.758 1.476 1.484a.9.9 0 0 0 .028.088H6.67l-.093-.814zm4.682-.758.76.758-.093.802H9.695l1.565-1.56zm.885-.345-.27-.269.342-.341-.072.61zm.403-3.506-.672-.682.853-.85-.181 1.532zm-1.292-1.292-1.275-1.268h2.55l-1.275 1.268zm-3.921 0L6.06 19.807h2.55l-1.275 1.268zm4.344 8.569H6.913c-.007-.001-.014-.004-.019-.009s-.008-.012-.009-.019l-.113-.963h5.052l-.109.963c-.001.008-.005.015-.011.02s-.014.008-.021.008h-.004zm3.688-13.976h-1.4a.439.439 0 0 0-.443.612.443.443 0 0 0 .263.238.439.439 0 0 0 .18.02h.499v2.359c-.001.008-.005.015-.011.02s-.014.008-.021.008H4.149c-.008 0-.016-.003-.021-.008s-.01-.012-.011-.02v-2.359h7.968a.44.44 0 0 0 .397-.435.437.437 0 0 0-.397-.435H3.236a.503.503 0 0 1-.501-.294.496.496 0 0 1 .297-.673.505.505 0 0 1 .204-.024h.913a.44.44 0 0 0 .397-.435.437.437 0 0 0-.397-.435h-.804a4.3 4.3 0 0 1 .877-3.49c.282.874 1.006 2.07 2.816 3.021 1.702.886 3.954 1.34 6.693 1.34h1.609a.505.505 0 0 1 .381.128.498.498 0 0 1-.381.863h.028zM18.866 27.772l-.325.498.007.004.318-.503zm3.498.168.595-.013-.015-.689-.679.115.1.586zm.04 1.831.151.575.454-.119-.01-.469-.595.013zm-4.59.087.134-.58-.004-.001-.13.581zm-2.266-1.011.385-.454-.001-.001-.384.454zm-.819-1.859.595.003v-.003h-.595zm.285-1.302-.534-.263v.001l.534.262zm1.824-1.557.211.556.002-.001-.213-.555zm5.845-.151.593.046.039-.502-.489-.121-.143.577zm-.145 1.865-.111.585.652.124.052-.662-.593-.046zm-1.586-.763c-.893 0-1.643.095-2.192.336a1.792 1.792 0 0 0-.723.543 1.4 1.4 0 0 0-.284.86h1.19c0-.07.017-.108.042-.141a.628.628 0 0 1 .253-.172c.319-.14.87-.236 1.713-.236v-1.19zm-3.198 1.739c0 .612.274 1.117.787 1.451l.65-.997a.483.483 0 0 1-.247-.454h-1.19zm.794 1.456c.486.308 1.127.424 1.846.424v-1.19c-.621 0-.999-.105-1.21-.239l-.637 1.005zm1.846.423c.706 0 1.396-.057 2.069-.171l-.199-1.173c-.605.103-1.228.154-1.87.154v1.19zm1.375-.744.041 1.83 1.19-.026-.041-1.83-1.19.026zm.484 1.241c-.68.179-1.43.271-2.254.271v1.19c.912 0 1.765-.102 2.557-.31l-.303-1.151zm-2.254.271c-.84 0-1.52-.066-2.051-.188l-.267 1.16c.647.149 1.423.218 2.318.218v-1.19zm-2.055-.189c-.568-.127-.978-.262-1.252-.396l-.522 1.069c.393.192.904.351 1.514.488l.26-1.161zm-1.251-.395a3.643 3.643 0 0 1-.759-.488l-.77.907c.297.252.634.468 1.007.65l.522-1.069zm-.76-.49c-.404-.342-.611-.788-.608-1.402l-1.19-.006c-.005.936.334 1.729 1.03 2.317l.768-.909zm-.609-1.404c0-.4.078-.743.224-1.04l-1.068-.524a3.515 3.515 0 0 0-.345 1.563h1.19zm.224-1.039c.271-.55.749-.978 1.502-1.263l-.422-1.112c-.982.373-1.721.983-2.147 1.851l1.068.525zm1.504-1.264c.792-.304 1.675-.46 2.657-.46v-1.19c-1.11 0-2.14.177-3.083.539l.426 1.111zm2.656-.461c1.001 0 1.945.111 2.832.331l.286-1.155a12.916 12.916 0 0 0-3.118-.366v1.19zm2.382-.292-.145 1.865 1.186.092.145-1.865-1.186-.092zm.559 1.327a9.236 9.236 0 0 0-1.697-.179v1.19c.419 0 .909.051 1.475.158l.222-1.169zm5.805.95-.003.595.605.003-.006-.605-.595.006zm-.256-.773-.405.436.005.005.4-.441zm-1.482.058.412.429.004-.004-.416-.425zm-.36.704-.587-.096-.113.688.697.004.003-.595zm4.375 3.172.359.474.214-.162.02-.268-.593-.044zm-1.284.476-.128-.581-.003.001.131.58zm-4.462-.162-.203.559.005.002.198-.561zm-1.017-.541-.369.466.007.006.362-.472zm-.679-.854-.533.264.001.002.532-.266zm.697-3.608.396.444-.396-.444zm5.438-.645.238-.545-.006-.002-.232.548zm1.365 1.255-.535.26.002.003.533-.263zm.233 1.04.593.043.002-.022v-.022h-.595zm-.07.959-.003.595.556.003.04-.554-.593-.043zm-4.712-.023.003-.595-.776-.004.198.751.575-.152zm.674.83-.293.518.002.001.29-.519zm3.614-.203v-.595h-.119l-.11.046.229.549zm.314 0 .593.044.048-.639h-.641v.595zm-1.793-1.691c-.005-.43-.104-.892-.451-1.207l-.799.881c-.007-.006.007.001.024.053a.982.982 0 0 1 .037.286l1.19-.013zM28.603 25c-.312-.29-.722-.386-1.125-.386v1.19c.232 0 .302.055.316.068l.81-.872zm-1.125-.385c-.443 0-.855.139-1.178.455l.833.85c.065-.064.16-.115.345-.115v-1.19zm-1.174.45a1.813 1.813 0 0 0-.535 1.036l1.174.193a.625.625 0 0 1 .185-.37l-.824-.858zm.049 1.727 2.097.012.007-1.19-2.097-.012-.007 1.19zm4.019 2.104c-.13.099-.449.237-1.053.37l.256 1.162c.628-.138 1.166-.318 1.516-.583l-.719-.948zm-1.056.37a7.494 7.494 0 0 1-1.664.194v1.19c.629 0 1.271-.076 1.927-.224l-.263-1.161zm-1.664.194a10.61 10.61 0 0 1-1.391-.076l-.159 1.179c.438.059.956.087 1.549.087v-1.19zm-1.391-.076a5.445 5.445 0 0 1-1.078-.262l-.396 1.122c.432.153.871.259 1.316.319l.159-1.179zm-1.073-.26a3.155 3.155 0 0 1-.857-.453l-.724.944c.339.26.734.467 1.176.628l.406-1.119zm-.85-.447a1.894 1.894 0 0 1-.517-.654l-1.064.532c.21.419.489.775.843 1.054l.739-.933zm-.516-.652c-.125-.253-.2-.579-.2-.997h-1.19c0 .558.1 1.073.323 1.524l1.067-.527zm-.2-.997c0-.419.075-.788.218-1.117l-1.092-.474a3.951 3.951 0 0 0-.316 1.591h1.19zm.218-1.117c.15-.346.334-.601.541-.786l-.791-.889a3.393 3.393 0 0 0-.842 1.201l1.092.474zm.542-.786c.639-.57 1.615-.901 3.02-.901v-1.19c-1.577 0-2.879.37-3.812 1.202l.792.888zm3.02-.901c.631 0 1.226.12 1.79.359l.465-1.095a5.716 5.716 0 0 0-2.254-.454v1.19zm1.784.358c.526.23.867.555 1.068.97l1.07-.52c-.341-.701-.911-1.212-1.662-1.54l-.476 1.091zm1.07.973c.111.225.171.48.171.777h1.19c0-.463-.095-.901-.294-1.303l-1.067.527zm.172.733-.07.959 1.187.086.07-.959-1.187-.086zm.527.407-4.712-.023-.006 1.19 4.712.023.006-1.19zm-5.29.723c.139.527.479.927.957 1.197l.585-1.036c-.235-.133-.345-.287-.391-.465l-1.151.303zm.959 1.199c.483.27 1.086.378 1.76.378v-1.19c-.565 0-.942-.093-1.18-.226l-.581 1.039zm1.76.377c.724 0 1.518-.196 2.372-.551l-.457-1.098c-.765.318-1.399.46-1.915.46v1.19zm2.144-.505h.314v-1.19h-.314v1.19zm-.28-.639-.11 1.476 1.187.089.11-1.476-1.187-.089z"/>
    </symbol>
    <symbol id="icon-menu-open" viewBox="0 0 32 32">
      <path d="M26.733 14H5.266c-.7 0-1.267.425-1.267.95v.1c0 .525.567.95 1.267.95h21.467c.7 0 1.267-.425 1.267-.95v-.1c0-.525-.567-.95-1.267-.95zM26.733 20H5.266c-.7 0-1.267.425-1.267.95v.1c0 .525.567.95 1.267.95h21.467c.7 0 1.267-.425 1.267-.95v-.1c0-.525-.567-.95-1.267-.95zM26.733 8H5.266c-.7 0-1.267.425-1.267.95v.1c0 .525.567.95 1.267.95h21.467c.7 0 1.267-.425 1.267-.95v-.1c0-.525-.567-.95-1.267-.95z"/>
    </symbol>
    <symbol id="icon-arrow-right" viewBox="0 0 32 32">
      <path d="M31.771 16.552a.78.78 0 0 0 0-1.104l-4.967-4.967a.78.78 0 1 0-1.104 1.104L30.115 16 25.7 20.415a.78.78 0 1 0 1.104 1.104l4.967-4.967zM0 16.78h31.22v-1.561H0v1.561z"/>
    </symbol>
    <symbol id="icon-cow" viewBox="0 0 32 32">
      <path d="M8.921 4.618c-.188.162-.725 1.282-.917 1.894-.229.758-.308 1.326-.276 2.11.042 1.12.323 1.969.944 2.857.162.233.292.433.292.449 0 .011-.099.022-.224.022-.537 0-1.543.179-2.314.411-1.225.368-1.944 1.012-1.944 1.731 0 .254.229.687.474.909.474.427 1.512.833 2.627 1.028.386.07 1.532.189 1.788.195.047 0 .063.249.063 1.066 0 .703.026 1.25.078 1.585.188 1.201.772 2.473 1.543 3.371l.266.308-.177.287c-.261.406-.36.714-.391 1.174-.078 1.104.61 2.083 1.939 2.77 2.533 1.315 6.469.801 7.944-1.039.719-.898.803-1.926.235-2.857l-.177-.287.318-.384a6.671 6.671 0 0 0 1.272-2.332c.245-.768.339-1.51.339-2.684 0-.536.016-.979.042-.979a22.66 22.66 0 0 0 1.757-.195c1.121-.195 2.137-.595 2.627-1.028.245-.222.474-.655.474-.909 0-.801-.813-1.45-2.325-1.84-.495-.13-1.428-.287-1.882-.314l-.214-.016.235-.325c.292-.395.657-1.163.798-1.667.396-1.455.151-3.149-.698-4.767-.355-.671-.599-.828-.886-.563-.11.103-.156.243-.261.752-.323 1.618-.923 2.9-1.798 3.847l-.386.422H11.86l-.344-.373c-.855-.941-1.475-2.272-1.798-3.896-.104-.509-.151-.649-.261-.752-.172-.157-.339-.152-.532.016zm.667 3.209a8.56 8.56 0 0 0 1.027 1.699l.323.417-.339.254c-.318.243-.615.59-.844.985l-.099.179-.25-.341c-.855-1.18-1.069-2.624-.615-4.123.219-.725.214-.72.412-.092.094.303.271.763.386 1.023zm13.569-1.142a5.34 5.34 0 0 1 .297 1.823c0 .985-.261 1.818-.808 2.565l-.245.335-.182-.308a3.246 3.246 0 0 0-.912-1.001 1.26 1.26 0 0 1-.25-.195c0-.016.099-.141.224-.276.579-.644 1.199-1.802 1.506-2.797.094-.308.188-.563.203-.563s.094.189.167.417zm-2.664 3.955c.579.244 1.131.941 1.22 1.531.047.325.156.53.297.563.063.011.495.049.959.081 1.647.108 2.945.46 3.498.941.255.227.229.417-.078.649-.615.465-1.944.817-3.3.876-.897.038-1.084.065-1.204.189-.089.092-.099.189-.099 1.169 0 1.326-.068 2.088-.235 2.705-.235.839-.698 1.731-1.241 2.364l-.224.26-.464-.276a5.76 5.76 0 0 0-1.72-.698c-1.976-.471-4.16-.184-5.63.741l-.339.216-.214-.254a7.84 7.84 0 0 1-.933-1.483c-.401-.931-.521-1.688-.521-3.355 0-1.618.083-1.499-1.116-1.564-1.532-.081-2.7-.357-3.435-.822-.542-.346-.454-.655.302-1.017.725-.352 1.72-.563 3.102-.649 1.074-.07 1.1-.087 1.199-.606.146-.785.725-1.434 1.454-1.639.182-.054 1.204-.065 4.332-.06l4.092.011.297.124zm-2.929 11.2c1.277.314 2.231.898 2.643 1.623.099.168.141.341.162.606.021.33.005.411-.12.682-.579 1.228-2.705 2.04-4.869 1.856-2.601-.216-4.311-1.666-3.638-3.089.365-.768 1.6-1.504 2.903-1.721.214-.032.427-.07.469-.081s.511-.011 1.042 0c.725.016 1.074.049 1.407.124z"/>
      <path d="M12.393 13.351c-.323.108-.542.249-.834.541-.255.244-.276.53-.063.703.198.162.386.141.625-.07.302-.265.537-.373.829-.373.292-.005.516.097.829.373.24.211.427.233.626.07.104-.087.136-.157.136-.319 0-.168-.036-.243-.219-.427-.516-.519-1.282-.72-1.929-.498zM18.471 13.346c-.334.124-.761.406-.933.617-.167.206-.172.438 0 .611.172.184.381.173.631-.032.615-.509 1.074-.525 1.642-.054.146.124.313.222.365.222.255 0 .464-.227.464-.498 0-.173-.433-.574-.824-.763-.433-.211-.949-.249-1.345-.103zM13.149 23.361c-.151.146-.203.357-.125.525.057.135.146.189.506.287.162.043.229.097.287.233.073.179.078.179.48.195l.401.016v-.151c-.005-.216-.125-.53-.281-.747-.182-.249-.5-.411-.86-.444-.245-.022-.308-.011-.407.087zM18.127 23.323c-.261.07-.636.422-.74.698a1.852 1.852 0 0 0-.099.492c-.01.233.01.287.136.4.308.271.714.06.714-.373 0-.211.156-.357.433-.411.292-.054.396-.173.401-.449 0-.363-.323-.503-.844-.357z"/>
    </symbol>
    <symbol id="icon-weight" viewBox="0 0 32 32">
      <path d="M14.688 4.874c-2.861.424-5.218 2.013-6.085 4.093-.277.657-.351 1.061-.351 1.853.005.585.027.802.117 1.118.186.621.319.937.596 1.382l.255.414-.287.352c-2.271 2.826-2.521 6.8-.628 9.931.707 1.175 1.862 2.329 2.989 3.001l.335.197 9.175-.078.218-.119c.761-.43 1.835-1.387 2.436-2.163a9.082 9.082 0 0 0 1.745-4.047c.085-.533.085-2.111-.005-2.613-.271-1.547-.851-2.872-1.766-4.047a4.477 4.477 0 0 1-.314-.424c0-.01.096-.171.207-.352a5.56 5.56 0 0 0 .622-1.413c.144-.518.144-1.811 0-2.329-.511-1.837-2.042-3.369-4.207-4.212-.606-.238-1.644-.492-2.314-.574-.622-.072-2.159-.057-2.739.031zm3.239.843c2.84.554 4.92 2.293 5.303 4.435.085.481.032 1.299-.112 1.754-.144.445-.41.968-.723 1.413-.128.181-.234.388-.234.455s.112.243.271.419c1.33 1.475 2.032 3.322 2.032 5.32-.005 2.272-.878 4.264-2.558 5.827a8.892 8.892 0 0 1-.915.75l-.399.269-8.792.036-.34-.217c-1.234-.802-2.346-2.127-2.963-3.534a7.942 7.942 0 0 1-.223-5.698c.335-.963.782-1.749 1.463-2.577.277-.331.404-.528.404-.621 0-.078-.138-.331-.319-.595-.638-.926-.899-1.956-.745-2.929.16-.983.606-1.791 1.431-2.593 1.074-1.04 2.574-1.728 4.335-1.987.729-.109 2.34-.067 3.085.072z"/>
      <path d="M14.927 6.628c-2.181.357-3.888 1.568-4.446 3.157-.128.357-.149.497-.149 1.009s.021.652.149 1.009c.08.228.229.543.33.704.277.445.399.461.947.129a8.61 8.61 0 0 1 2.739-1.071c.66-.135 1.925-.186 2.643-.104a8.765 8.765 0 0 1 3.314 1.107c.277.16.558.295.628.295.404 0 .92-1.164.92-2.07 0-2.013-1.925-3.736-4.654-4.166-.58-.093-1.861-.093-2.42 0zm2.632.828c.915.197 1.755.569 2.388 1.061.851.657 1.308 1.573 1.234 2.458-.027.352-.16.828-.239.88-.021.01-.319-.114-.66-.279a10.537 10.537 0 0 0-2.324-.792c-.495-.104-.702-.119-1.808-.114-1.09 0-1.319.016-1.792.114a9.56 9.56 0 0 0-2.244.766c-.793.378-.75.383-.894-.083-.186-.605-.069-1.408.293-2.013.191-.321.718-.854 1.101-1.118.729-.502 1.367-.73 2.739-.978.282-.052 1.846.021 2.207.098zM16.693 14.132c-.149.186-.149.362.005.512.101.098.202.124.569.15a4.683 4.683 0 0 1 2.005.611c.436.259 1.101.885 1.399 1.335.441.647.745 1.573.745 2.256 0 .238.021.31.133.414.17.171.394.171.558 0 .117-.119.122-.15.09-.657-.149-2.505-2.292-4.595-4.856-4.735l-.532-.031-.117.145z"/>
    </symbol>
    <symbol id="icon-ice-crema" viewBox="0 0 32 32">
      <path d="M16.078 4.557c.058.154.174.901.174 1.133 0 .574-.212 1.109-.602 1.528-.323.347-.646.54-1.422.853-.863.352-1.219.564-1.624.964-.41.41-.651.858-.737 1.383-.096.574 0 .978.294 1.21l.149.116-.236.149c-.477.313-1.345 1.051-1.494 1.277-.289.434-.26.839.067 1.003l.154.077-.174.164c-.26.246-.313.415-.275.858.024.294.014.453-.053.694-.082.313-.082.318.024.54.106.217.405.492.675.607.13.058.135.077.164.521.014.256.039 1.07.058 1.812.014.742.048 1.422.077 1.504a.57.57 0 0 0 .198.26c.28.193.472.4.598.641.14.275.294.95.762 3.282l.328 1.639.203.193c.386.381 1.123.554 2.338.554 1.219 0 1.947-.169 2.333-.549l.207-.198.299-1.518c.66-3.321.718-3.504 1.234-3.914.159-.13.313-.289.342-.362.034-.082.068-.713.092-1.668.019-.848.048-1.687.068-1.865l.029-.323.313-.236c.395-.304.549-.578.549-1.003-.005-.501-.333-1.051-.93-1.542l-.284-.231.14-.198c.583-.805.217-1.918-.868-2.661l-.328-.227.12-.125c.535-.574.622-2.285.174-3.475-.27-.709-.887-1.48-1.644-2.049-.371-.28-1.393-.897-1.485-.897-.019 0-.019.034-.005.077zm1.388 1.682c.256.251.564.593.684.766.718 1.003.901 2.261.468 3.186-.174.376-.694.935-1.176 1.268-.737.511-2.396 1.369-3.552 1.841-1.861.757-2.94.901-3.066.405-.048-.188.092-.337.684-.733.535-.366 2.935-2.15 2.979-2.222.014-.019-.231.092-.54.246-1.046.53-1.542.429-1.518-.308.014-.535.4-1.142.935-1.489.135-.087.554-.28.94-.434 1.268-.511 1.653-.771 2.082-1.412.256-.381.535-1.085.554-1.383.005-.106.024-.188.039-.188s.231.207.487.458zm1.316 5.476c.352.198.718.535.877.8.28.477.135.954-.468 1.562-.656.665-1.774 1.301-3.003 1.706-1.133.371-2.217.545-3.769.598l-.964.034.627.039c.81.053 2.376.005 2.984-.092 1.615-.256 2.988-.766 3.972-1.47.222-.159.453-.289.516-.289.159 0 .853.665.993.945a.735.735 0 0 1 .082.429c-.072.641-.853.983-2.738 1.21-2.304.275-5.317.005-6.604-.588-.607-.28-.709-.439-.554-.863.048-.135.058-.294.039-.521-.024-.299-.019-.337.087-.448.241-.26.646-.41 2.13-.786a20.534 20.534 0 0 0 1.567-.472c.819-.299 2.357-1.075 3.07-1.552.67-.443.766-.463 1.157-.241zm-6.401 5.9c1.012.294 1.909.381 3.576.347 1.253-.024 2.024-.101 3.138-.299.227-.039.424-.072.448-.072.053 0 .039 1.851-.019 2.338-.063.516-.202.916-.352 1.012-.154.101-.925.207-1.957.265-2.116.116-4.29 0-4.965-.27-.366-.149-.405-.342-.41-2.13 0-1.191.01-1.355.072-1.33.039.014.251.077.468.14zm1.142 4.097c.347.043.723.087.839.101l.207.024-.183.202c-.236.256-.598.766-.728 1.027-.149.299-.198.318-.419.198l-.188-.106-.106-.656c-.058-.357-.12-.699-.135-.757-.043-.125-.087-.125.713-.034zm5.139-.053c0 .01-.024.135-.048.275-.029.145-.149.93-.27 1.75-.246 1.711-.41 2.516-.559 2.786-.207.361-.704.574-1.509.641-.313.024-1.258-.039-1.311-.087-.039-.043.791-1.07.921-1.138.12-.068.154-.058.564.154.477.251.718.289.718.13s-.125-.313-.434-.525c-.284-.202-.386-.318-.386-.453 0-.039.14-.255.308-.482s.415-.588.54-.805l.236-.39.217.029c.439.063.554.058.54-.039a1.175 1.175 0 0 0-.183-.304c-.092-.12-.164-.241-.164-.265 0-.092.448-.935.593-1.113.125-.154.227-.231.227-.164zm-3.013.385c.241.159 1.147.945 1.205 1.041.024.043-.906 1.499-1.089 1.706-.019.024-.12-.024-.222-.101a15.48 15.48 0 0 0-.839-.578l-.651-.429.39-.66c.694-1.162.68-1.142.829-1.142.077 0 .246.072.376.164zm1.827.174c-.169.207-.308.337-.366.337-.125 0-.328-.111-.67-.362l-.284-.207.569-.034c.308-.014.607-.034.66-.043.386-.063.386-.058.092.308zm-3.644 2.318c.443.174 1.195.583 1.412.766.154.125.154.135.092.289a4.977 4.977 0 0 1-.299.516c-.125.193-.27.434-.323.535-.154.299-.202.323-.521.236-.342-.101-.525-.275-.622-.588-.13-.439-.337-1.677-.313-1.87.01-.072.212-.029.574.116z"/>
    </symbol>
    <symbol id="icon-arrow-ep-right" viewBox="0 0 32 32">
      <path d="M10.586 3.272a2 2 0 0 0 0 2.828l9.9 9.9-9.9 9.9a1.998 1.998 0 0 0 .025 2.804 2.001 2.001 0 0 0 2.804.025l11.314-11.314a2 2 0 0 0 0-2.828L13.415 3.273a2 2 0 0 0-2.828 0z"/>
    </symbol>
    <symbol id="icon-github" viewBox="0 0 32 32">
      <path d="M16 6.588c-5.169 0-9.412 4.242-9.412 9.412 0 4.411 3.095 8.419 7.206 9.412v-3.114a2.307 2.307 0 0 1-1.197-.03c-.556-.164-1.008-.535-1.344-1.1-.214-.361-.593-.752-.988-.723l-.097-1.099c.855-.073 1.595.521 2.034 1.259.195.328.419.52.708.605.278.082.578.043.926-.08.088-.698.407-.959.648-1.326v-.001c-2.451-.366-3.428-1.666-3.816-2.693-.514-1.363-.238-3.066.671-4.142.018-.021.05-.076.037-.114-.417-1.258.091-2.299.11-2.41.481.142.559-.143 2.089.786l.264.159c.111.066.076.028.186.02A8.031 8.031 0 0 1 16 11.131a8.016 8.016 0 0 1 2.002.285l.086.009c-.007-.001.023-.005.075-.036 1.911-1.157 1.842-.779 2.355-.946.019.111.519 1.169.107 2.411-.056.171 1.657 1.739.708 4.256-.388 1.027-1.365 2.328-3.816 2.693v.001c.314.479.692.734.69 1.722v3.887c4.111-.993 7.206-5 7.206-9.412 0-5.169-4.242-9.412-9.412-9.412z"/>
    </symbol>
    <symbol id="icon-telegram" viewBox="0 0 32 32">
      <path d="m12.868 18.375-.318 4.169c.454 0 .651-.182.887-.401l2.13-1.9 4.415 3.017c.81.421 1.38.199 1.599-.695l2.898-12.672.001-.001c.257-1.117-.433-1.554-1.222-1.28L6.226 14.698c-1.162.421-1.145 1.026-.198 1.3l4.355 1.264 10.115-5.907c.476-.294.909-.131.553.163l-8.182 6.857z"/>
    </symbol>
    <symbol id="icon-facebook" viewBox="0 0 32 32">
      <path d="M20.446 15.981h-2.61V25.6h-3.955v-9.619H12v-3.38h1.881v-2.187c0-1.564.739-4.014 3.99-4.014l2.929.012v3.281h-2.125c-.349 0-.839.175-.839.921v1.989h2.955l-.346 3.377z"/>
    </symbol>
    <symbol id="icon-btn-close" viewBox="0 0 32 32">
      <path d="m17.253 16 7.369-7.369a.886.886 0 0 0-.047-1.207.89.89 0 0 0-1.206-.047L16 14.746 8.631 7.368A.892.892 0 0 0 7.369 8.63l7.378 7.369-7.378 7.369a.891.891 0 0 0-.05 1.304.89.89 0 0 0 1.304-.051l7.378-7.369 7.369 7.369a.885.885 0 0 0 1.206-.047.89.89 0 0 0 .047-1.206l-7.369-7.369z"/>
    </symbol>
  </defs>
</svg>
